<svg width="33" height="32" viewBox="0 0 33 32" fill="none" xmlns="http://www.w3.org/2000/svg">
<path d="M28.1904 21.3333V10.6667C28.19 10.199 28.0665 9.73975 27.8325 9.33488C27.5985 8.93002 27.2621 8.59382 26.8571 8.36L17.5238 3.02667C17.1184 2.79262 16.6585 2.6694 16.1904 2.6694C15.7223 2.6694 15.2625 2.79262 14.8571 3.02667L5.52376 8.36C5.11878 8.59382 4.7824 8.93002 4.54838 9.33488C4.31435 9.73975 4.19091 10.199 4.19043 10.6667V21.3333C4.19091 21.801 4.31435 22.2603 4.54838 22.6651C4.7824 23.07 5.11878 23.4062 5.52376 23.64L14.8571 28.9733C15.2625 29.2074 15.7223 29.3306 16.1904 29.3306C16.6585 29.3306 17.1184 29.2074 17.5238 28.9733L26.8571 23.64C27.2621 23.4062 27.5985 23.07 27.8325 22.6651C28.0665 22.2603 28.19 21.801 28.1904 21.3333Z" stroke="#F04E6E" stroke-width="2" stroke-linecap="round" stroke-linejoin="round"/>
<path d="M4.55043 9.28L16.1904 16.0133L27.8304 9.28" stroke="#F04E6E" stroke-width="2" stroke-linecap="round" stroke-linejoin="round"/>
<path d="M16.1904 29.44V16" stroke="#F04E6E" stroke-width="2" stroke-linecap="round" stroke-linejoin="round"/>
</svg>
