<svg width="33" height="32" viewBox="0 0 33 32" fill="none" xmlns="http://www.w3.org/2000/svg">
<path d="M26.8571 9.33333H5.52376C4.051 9.33333 2.8571 10.5272 2.8571 12V25.3333C2.8571 26.8061 4.051 28 5.52376 28H26.8571C28.3299 28 29.5238 26.8061 29.5238 25.3333V12C29.5238 10.5272 28.3299 9.33333 26.8571 9.33333Z" stroke="#F04E6E" stroke-width="2" stroke-linecap="round" stroke-linejoin="round"/>
<path d="M21.5238 28V6.66667C21.5238 5.95942 21.2428 5.28115 20.7427 4.78105C20.2426 4.28095 19.5643 4 18.8571 4H13.5238C12.8165 4 12.1382 4.28095 11.6381 4.78105C11.138 5.28115 10.8571 5.95942 10.8571 6.66667V28" stroke="#F04E6E" stroke-width="2" stroke-linecap="round" stroke-linejoin="round"/>
</svg>
