<svg width="145" height="47" viewBox="0 0 145 47" fill="none" xmlns="http://www.w3.org/2000/svg">
<g clip-path="url(#clip0_2_98)">
<path d="M22.483 44.5731C34.7946 44.5731 44.7751 34.5951 44.7751 22.2865C44.7751 9.97803 34.7946 0 22.483 0C10.1714 0 0.190918 9.97803 0.190918 22.2865C0.190918 34.5951 10.1714 44.5731 22.483 44.5731Z" fill="#E74B6F"/>
<path d="M30.9677 47C29.321 41.9762 29.3481 42.0612 24.6361 29.1769C23.9635 27.3413 23.2677 25.5559 22.7536 24.926C22.1545 24.1724 21.594 24.0101 17.8484 25.1927L16.1437 25.7221C15.877 25.4941 15.1541 23.7898 15.1619 23.1638C19.9434 21.4016 24.5433 19.7089 31.6828 17.2975C32.0114 17.6839 32.4985 19.2684 32.5332 19.6162L29.8699 20.6828C27.2453 21.7378 26.7776 22.0933 26.8008 23.0556C26.8008 23.6043 27.1177 24.5589 27.7903 26.3945C33.2406 41.3037 35.1849 45.3576 35.1849 45.3576C34.8216 45.6397 32.4405 46.602 30.9677 47Z" fill="#231F20"/>
<path d="M53.1477 34.881C54.5818 37.7562 54.8369 38.1156 57.9409 37.6364C59.1005 37.4586 59.9084 37.25 59.9084 37.25C60.1636 37.6094 60.3646 39.1822 60.237 39.3832C58.7374 39.8756 57.1966 40.2326 55.6332 40.4498C51.7678 41.0488 50.9947 40.4111 49.808 37.6944L48.1884 33.8917C47.6974 32.7749 47.3341 32.7517 45.123 33.0918L44.9298 33.1227C41.8374 33.598 41.161 33.9419 41.0643 35.0549C40.8363 37.4316 40.9638 41.6516 40.9638 41.6516C40.6854 41.7257 40.4027 41.7825 40.1173 41.8217C39.2244 41.9569 37.6666 42.1579 36.6384 42.2081C37.6859 34.3091 38.5402 26.4448 39.2901 17.3903C40.1366 17.2203 41.2576 17.0039 42.3051 16.8454C43.3527 16.687 44.3306 16.5749 44.9182 16.5247C46.8857 21.305 49.8119 28.1645 52.2857 33.142L53.1477 34.881ZM44.1219 23.4769C43.3179 21.6142 43.0048 20.8684 42.5409 20.9418C41.9959 21.0268 41.8915 22.1552 41.6867 24.1725L41.2769 28.4853C41.1979 29.095 41.1733 29.7106 41.2035 30.3248C41.3426 31.2175 41.8529 31.175 43.9866 30.8503L44.1799 30.8194C45.9271 30.5489 46.6963 30.3905 46.5533 29.4591C46.4192 28.915 46.2314 28.3856 45.9928 27.8786L44.1219 23.4769Z" fill="#231F20"/>
<path d="M51.9301 22.673C51.7214 14.4687 54.4156 11.8524 59.3209 11.7558C64.8176 11.6399 66.8856 14.7392 67.0518 22.19C67.1716 27.8051 66.3753 31.1595 62.8694 32.4115C62.6336 32.4966 62.5563 32.5352 62.5601 32.6937C62.5601 33.4666 63.1747 33.9767 64.9412 33.938C65.7128 33.9346 66.4792 33.8134 67.2141 33.5786C67.5427 34.3515 67.6316 36.7475 67.5195 37.0258C66.6135 37.3908 65.6435 37.5709 64.6668 37.5552C61.5242 37.6248 60.6274 36.1099 60.3066 33.9187C60.1713 32.9796 60.0128 32.941 59.6185 32.9526C54.6939 33.0569 52.1234 31.7391 51.9301 22.673ZM56.1821 28.8253C56.5919 29.5982 57.4616 29.8571 59.4252 29.8185C61.9764 29.7644 62.8307 29.3509 63.2057 28.5586C63.6193 27.6853 63.6463 25.0806 63.5922 22.074C63.5265 18.9322 63.2057 17.17 62.8191 16.3932C62.4326 15.6164 61.6131 15.0445 59.5335 15.0909C56.9011 15.145 56.3213 15.5508 55.9463 16.343C55.5714 17.1352 55.4206 19.3766 55.4979 23.1058C55.5289 25.6564 55.7762 28.0485 56.186 28.8253H56.1821Z" fill="#231F20"/>
<path d="M76.2787 40.1367C69.7383 39.6807 68.6444 37.818 69.0967 31.372C70.0901 17.0734 70.0089 14.8281 70.0089 14.8281C71.1917 14.7934 72.3282 14.8706 73.4878 14.9518C73.4878 14.9518 72.8075 25.3357 72.5872 28.4775C72.247 33.3739 72.1388 34.9428 72.4751 35.7544C72.8114 36.5659 74.2107 36.8558 76.5609 37.0219C79.1082 37.1958 79.8774 36.8558 80.3258 36.1022C80.8167 35.2675 80.9056 33.9767 81.1646 30.2552C81.5318 24.9686 81.872 15.5469 81.872 15.5469C83.1686 15.5407 84.4628 15.6571 85.7374 15.8947C85.7374 15.8947 85.3084 24.6285 84.7672 32.4618C84.3729 38.1388 82.8615 40.5773 76.2787 40.1367Z" fill="#231F20"/>
<path d="M90.6427 38.3706C90.894 39.0276 91.725 39.387 96.0234 39.8275C100.322 40.2681 104.288 40.4381 104.288 40.4381C104.376 41.3575 104.308 42.2851 104.087 43.1819C104.087 43.1819 100.5 42.7336 95.4204 42.2119C89.7962 41.6361 85.838 41.3501 85.838 41.3501C85.838 41.3501 86.4178 37.2228 87.2218 29.4127C88.076 21.0151 88.3234 16.3043 88.3234 16.3043C88.3234 16.3043 93.7544 16.8608 100.534 17.3593C100.592 18.3139 100.256 20.0645 100.04 20.2693C100.04 20.2693 98.2538 19.9679 96.2979 19.7669C93.3679 19.4655 92.1039 19.4925 91.8217 19.9369C91.5395 20.3814 91.4351 21.162 91.238 22.9165C90.979 25.4555 91.0602 26.5723 91.2148 26.9819C91.4351 27.5577 92.1309 27.6659 95.2581 27.9867C97.214 28.1876 99.1467 28.2108 99.1467 28.2108C99.1991 29.066 99.1248 29.9241 98.9264 30.7575L96.5762 30.5295C92.4749 30.1083 91.6748 30.2242 91.296 30.8194C91.0602 31.2058 90.863 32.3652 90.6814 34.1119C90.5422 35.4761 90.3876 37.7523 90.6427 38.3706Z" fill="#231F20"/>
<path d="M108.126 17.9622H108.319C114.388 18.4685 117.33 20.9611 116.978 25.6603C116.634 29.7682 114.554 31.0706 112.726 31.6077C114.141 32.1217 115.351 33.2076 115.173 35.3602C115.076 36.5195 114.875 37.5011 114.786 38.6759C114.589 41.0217 115.451 41.5665 118.973 41.8602C120.735 42.0071 122.741 42.0187 122.741 42.0187C122.908 42.4051 122.741 43.9857 122.564 44.1712C122.564 44.1712 120.766 44.4533 116.851 44.1287C112.158 43.7423 110.619 42.78 110.89 39.5338C111.021 37.988 111.238 36.8016 111.304 36.021C111.413 35.2605 111.343 34.4849 111.099 33.7564C110.828 33.1845 110.094 32.57 107.941 32.3922C105.672 32.2029 105.297 32.4463 105.111 32.7439C104.837 33.196 104.725 33.9032 104.562 36.048C104.477 37.0258 104.466 38.6025 104.466 38.6025C104.079 38.6875 101.23 38.6488 100.268 38.3706C100.268 38.3706 100.654 35.1322 100.983 31.2213L101.018 30.8348C101.833 21.0538 101.914 17.6956 101.914 17.6956C101.914 17.6956 103.233 17.5526 108.126 17.9622ZM112.316 29.6175C113.035 29.0108 113.132 27.836 113.306 25.753C113.437 24.2072 113.433 22.8083 113.02 22.1049C112.676 21.4866 111.841 21.1002 108.907 20.8567C106.754 20.6751 106.236 20.7524 105.815 21.1118C105.223 21.6103 105.042 23.4884 104.748 26.8119C104.636 28.1838 104.659 28.8524 105.134 29.405C105.42 29.745 105.992 29.9885 107.168 30.0851C109.773 30.3131 111.551 30.2629 112.316 29.6175Z" fill="#231F20"/>
<path d="M122.262 36.3766C122.216 37.3543 122.208 38.4557 122.158 39.5532C121.032 39.6432 119.9 39.6199 118.779 39.4836C118.779 39.4836 118.946 37.5243 119.112 33.7989C119.297 29.6794 119.382 24.3696 119.382 24.3696C120.615 24.334 121.849 24.4013 123.07 24.5705C123.07 24.5705 122.525 30.4136 122.262 36.3766Z" fill="#231F20"/>
<path d="M118.211 19.1486C118.211 19.1486 122.424 18.7621 129.51 18.1786C133.557 17.8578 135.188 17.8501 135.188 17.8501C137.937 26.2631 140.986 34.5331 144.191 42.8727C142.652 43.0819 141.104 43.2109 139.552 43.2592C139.552 43.2592 138.107 38.4053 136.847 35.449C136.344 34.2665 135.93 34.1776 133.754 34.3554H133.511C130.557 34.5911 130.121 34.7418 129.842 35.8664C129.228 38.359 128.377 44.0475 128.377 44.0475C126.988 44.2941 125.582 44.4336 124.172 44.4649C125.181 39.7038 125.9 35.963 127.051 29.9807C128.203 23.9985 128.439 22.3368 128.389 21.7301C128.339 21.1233 127.925 20.9919 126.089 20.9572C123.524 20.9377 120.96 21.0563 118.408 21.3127C118.182 20.6151 118.114 19.8756 118.211 19.1486ZM133.549 23.8864C132.919 22.101 132.691 21.7957 132.366 21.8189C131.961 21.8537 131.775 22.5609 131.45 24.1376L130.349 29.7257C129.889 32.1217 130.055 32.1912 132.892 31.9671H133.093C136.128 31.7275 136.186 31.5188 135.447 29.3354L133.549 23.8864Z" fill="#231F20"/>
<path d="M11.8182 6.53098L18.2967 14.2793L18.7065 2.60852L11.8182 6.53098Z" fill="#231F20"/>
<path d="M7.47349 11.8447L15.5562 18.1748L2.66486 19.4694L7.47349 11.8447Z" fill="#231F20"/>
<path d="M23.863 14.4494L23.7471 2.71289L29.3211 5.01613L23.863 14.4494Z" fill="#231F20"/>
<path d="M14.4622 40.6816L7.67059 36.0712L16.7042 30.3479L14.4622 40.6816Z" fill="#231F20"/>
<path d="M5.12715 25.0961L12.6919 26.0545L4.91455 30.5914L5.12715 25.0961Z" fill="#231F20"/>
<path d="M57.9448 37.6363C54.8524 38.1155 54.5857 37.7561 53.1516 34.881L52.2857 33.1458C49.8119 28.1645 46.8741 21.305 44.9182 16.5285C44.6862 16.5478 44.377 16.5787 44.0446 16.6174C42.9065 12.2834 40.4886 8.39289 37.1061 5.45313C33.7237 2.51337 29.5336 0.660794 25.0824 0.136999C20.6312 -0.386795 16.1255 0.442497 12.1527 2.51673C8.17991 4.59096 4.92449 7.81388 2.81097 11.7652C0.697441 15.7165 -0.176106 20.2128 0.304241 24.6678C0.784587 29.1228 2.59653 33.3297 5.50379 36.7399C8.41105 40.1502 12.2787 42.6054 16.6024 43.7856C20.9261 44.9657 25.5051 44.8159 29.7424 43.3558C30.1289 44.4379 30.4536 45.489 30.9523 47.0039C32.425 46.6174 34.8177 45.6436 35.1695 45.3692C35.1695 45.3692 34.6979 44.3838 33.5692 41.6129C34.7917 40.9092 35.9449 40.0915 37.0133 39.1706C36.887 40.1882 36.7582 41.2046 36.6268 42.2196C37.655 42.181 39.2128 41.98 40.1057 41.8332C40.3911 41.794 40.6738 41.7372 40.9522 41.6632C40.9522 41.6632 40.8246 37.4431 41.0527 35.0665C41.1571 33.938 41.8258 33.5941 44.9182 33.1342L45.1114 33.1033C47.3225 32.7632 47.6858 32.7864 48.1768 33.9032L49.7964 37.7059C50.956 40.4111 51.7291 41.0603 55.6216 40.4613C57.185 40.2441 58.7258 39.8871 60.2254 39.3947C60.353 39.1783 60.152 37.6209 59.8968 37.2615C59.9123 37.2538 59.1121 37.4586 57.9448 37.6363ZM44.1799 30.8194L43.9866 30.8503C43.6001 30.9083 43.2947 30.9508 43.0125 30.9894C43.8613 28.9848 44.4109 26.8663 44.6437 24.7019L45.9928 27.8785C46.2314 28.3855 46.4192 28.915 46.5533 29.4591C46.6963 30.3904 45.9271 30.5489 44.1799 30.8194Z" fill="white"/>
<path d="M64.9335 33.9419C63.167 33.9805 62.5679 33.482 62.5524 32.6975C62.5524 32.5391 62.6258 32.5004 62.8616 32.4154C66.3676 31.1633 67.1639 27.8244 67.0634 22.1938C66.9049 14.7392 64.8369 11.6399 59.3325 11.7597C54.4272 11.864 51.733 14.4648 51.9417 22.6769C52.135 31.743 54.7171 33.0608 59.6224 32.9603C60.0089 32.9603 60.1751 32.9874 60.3104 33.9264C60.6313 36.1176 61.528 37.6325 64.6707 37.5629C65.6474 37.5786 66.6174 37.3986 67.5234 37.0335C67.6355 36.7552 67.5466 34.3631 67.218 33.5864C66.4792 33.821 65.7087 33.9409 64.9335 33.9419ZM59.4291 29.8185C57.4654 29.8571 56.5957 29.6021 56.186 28.8253C55.7762 28.0485 55.5289 25.6564 55.4747 23.1058C55.3974 19.3766 55.5868 17.0966 55.9231 16.343C56.2594 15.5894 56.8779 15.145 59.5103 15.0909C61.5899 15.0445 62.39 15.6164 62.7959 16.3932C63.2018 17.17 63.5188 18.9322 63.569 22.074C63.6347 25.0961 63.6077 27.6853 63.1825 28.5586C62.8346 29.3702 61.9803 29.7566 59.4291 29.8185Z" fill="white"/>
<path d="M81.1801 30.2436C80.9211 33.9651 80.8322 35.2675 80.3413 36.0906C79.8929 36.8635 79.1236 37.1842 76.5763 37.0103C74.2261 36.8442 72.8307 36.5505 72.4905 35.7428C72.1503 34.9351 72.2624 33.3623 72.6026 28.4659C72.8229 25.3357 73.5033 14.9402 73.5033 14.9402C72.3436 14.859 71.184 14.7818 70.0243 14.8165C70.0243 14.8165 70.1055 17.0657 69.1121 31.3604C68.6598 37.8219 69.7538 39.6691 76.2941 40.1251C82.8345 40.5811 84.3884 38.1272 84.7981 32.4502C85.3393 24.6169 85.7915 15.8715 85.7915 15.8715C84.5169 15.6339 83.2227 15.5175 81.9261 15.5237C81.9261 15.5237 81.5473 24.957 81.1801 30.2436Z" fill="white"/>
<path d="M96.0196 39.8275C91.7212 39.387 90.8901 39.0276 90.6389 38.3706C90.3876 37.7136 90.5422 35.4761 90.6814 34.1197C90.863 32.3613 91.0679 31.1981 91.296 30.8271C91.6825 30.232 92.4749 30.116 96.5762 30.5373L98.9225 30.7807C99.1246 29.94 99.2001 29.0738 99.1467 28.2108C99.1467 28.2108 97.214 28.1722 95.2619 27.9712C92.1348 27.6505 91.439 27.5423 91.2187 26.9665C91.0641 26.5568 90.9829 25.44 91.2419 22.901C91.4235 21.1465 91.5395 20.3698 91.8255 19.9215C92.1116 19.4732 93.3717 19.45 96.3018 19.7515C98.2577 19.9524 100.044 20.2538 100.044 20.2538C100.26 20.0374 100.596 18.2984 100.538 17.3439C93.7544 16.8608 88.3234 16.3043 88.3234 16.3043C88.3234 16.3043 88.076 21.0151 87.2179 29.4127C86.4139 37.2228 85.8341 41.3501 85.8341 41.3501C85.8341 41.3501 89.7923 41.6361 95.4166 42.2119C100.496 42.7336 104.083 43.1819 104.083 43.1819C104.304 42.2851 104.372 41.3575 104.284 40.4381C104.284 40.4381 100.306 40.2681 96.0196 39.8275Z" fill="white"/>
<path d="M118.977 41.8757C115.455 41.5819 114.593 41.0371 114.79 38.6913C114.887 37.532 115.088 36.5465 115.177 35.3756C115.355 33.223 114.145 32.1371 112.73 31.6231C114.547 31.1053 116.626 29.7836 116.982 25.6757C117.334 20.9765 114.392 18.4839 108.323 17.9776H108.13C103.236 17.568 101.922 17.7341 101.922 17.7341C101.922 17.7341 101.841 21.0769 101.025 30.8734L100.991 31.2599C100.666 35.1707 100.275 38.4092 100.275 38.4092C101.238 38.6874 104.071 38.7261 104.473 38.6411C104.473 38.6411 104.473 37.0644 104.57 36.0866C104.748 33.9341 104.844 33.2346 105.119 32.7825C105.304 32.4849 105.679 32.2415 107.948 32.4308C110.101 32.6086 110.836 33.2037 111.106 33.795C111.351 34.5235 111.421 35.2991 111.311 36.0596C111.246 36.8325 111.029 37.9918 110.898 39.5724C110.627 42.8186 112.166 43.7731 116.858 44.1673C120.774 44.4919 122.571 44.2098 122.571 44.2098C122.745 44.0243 122.915 42.4631 122.749 42.0573C122.745 42.0341 120.739 42.0225 118.977 41.8757ZM107.152 30.0928C105.992 29.9962 105.405 29.7527 105.119 29.4127C104.655 28.86 104.632 28.1915 104.732 26.8196C105.011 23.4961 105.208 21.618 105.799 21.1194C106.224 20.76 106.742 20.6828 108.892 20.8644C111.825 21.1079 112.66 21.4943 113.004 22.1126C113.418 22.816 113.422 24.1956 113.29 25.7607C113.116 27.8359 113.02 29.0107 112.301 29.6252C111.582 30.2397 109.773 30.3131 107.152 30.0928Z" fill="white"/>
<path d="M119.382 24.3695C119.382 24.3695 119.297 29.6793 119.112 33.7989C118.946 37.5243 118.779 39.4836 118.779 39.4836C119.9 39.6198 121.032 39.6431 122.158 39.5531C122.208 38.4556 122.216 37.3542 122.262 36.3765C122.525 30.4136 123.066 24.5705 123.066 24.5705C121.846 24.4011 120.614 24.3338 119.382 24.3695Z" fill="white"/>
<path d="M22.483 44.5731C34.7946 44.5731 44.7751 34.5951 44.7751 22.2865C44.7751 9.97803 34.7946 0 22.483 0C10.1714 0 0.190918 9.97803 0.190918 22.2865C0.190918 34.5951 10.1714 44.5731 22.483 44.5731Z" fill="#A065A5"/>
<path d="M30.9677 47C29.321 41.9762 29.3481 42.0612 24.6361 29.1769C23.9635 27.3413 23.2677 25.5559 22.7536 24.926C22.1545 24.1724 21.594 24.0101 17.8484 25.1927L16.1437 25.7221C15.877 25.4941 15.1541 23.7898 15.1619 23.1638C19.9434 21.4016 24.5433 19.7089 31.6828 17.2975C32.0114 17.6839 32.4985 19.2684 32.5332 19.6162L29.8699 20.6828C27.2453 21.7378 26.7776 22.0933 26.8008 23.0556C26.8008 23.6043 27.1177 24.5589 27.7903 26.3945C33.2406 41.3037 35.1849 45.3576 35.1849 45.3576C34.8216 45.6397 32.4405 46.602 30.9677 47Z" fill="#0A0203"/>
<path d="M53.1477 34.881C54.5818 37.7562 54.8369 38.1156 57.9409 37.6364C59.1005 37.4586 59.9084 37.25 59.9084 37.25C60.1636 37.6094 60.3646 39.1822 60.237 39.3832C58.7374 39.8756 57.1966 40.2326 55.6332 40.4498C51.7678 41.0488 50.9947 40.4111 49.808 37.6944L48.1884 33.8917C47.6974 32.7749 47.3341 32.7517 45.123 33.0918L44.9298 33.1227C41.8374 33.598 41.161 33.9419 41.0643 35.0549C40.8363 37.4316 40.9638 41.6516 40.9638 41.6516C40.6854 41.7257 40.4027 41.7825 40.1173 41.8217C39.2244 41.9569 37.6666 42.1579 36.6384 42.2081C37.6859 34.3091 38.5402 26.4448 39.2901 17.3903C40.1366 17.2203 41.2576 17.0039 42.3051 16.8454C43.3527 16.687 44.3306 16.5749 44.9182 16.5247C46.8857 21.305 49.8119 28.1645 52.2857 33.142L53.1477 34.881ZM44.1219 23.4769C43.3179 21.6142 43.0048 20.8684 42.5409 20.9418C41.9959 21.0268 41.8915 22.1552 41.6867 24.1725L41.2769 28.4853C41.1979 29.095 41.1733 29.7106 41.2035 30.3248C41.3426 31.2175 41.8529 31.175 43.9866 30.8503L44.1799 30.8194C45.9271 30.5489 46.6963 30.3905 46.5533 29.4591C46.4192 28.915 46.2314 28.3856 45.9928 27.8786L44.1219 23.4769Z" fill="#0A0203"/>
<path d="M51.9301 22.673C51.7214 14.4687 54.4156 11.8524 59.3209 11.7558C64.8176 11.6399 66.8856 14.7392 67.0518 22.19C67.1716 27.8051 66.3753 31.1595 62.8694 32.4115C62.6336 32.4966 62.5563 32.5352 62.5601 32.6937C62.5601 33.4666 63.1747 33.9767 64.9412 33.938C65.7128 33.9346 66.4792 33.8134 67.2141 33.5786C67.5427 34.3515 67.6316 36.7475 67.5195 37.0258C66.6135 37.3908 65.6435 37.5709 64.6668 37.5552C61.5242 37.6248 60.6274 36.1099 60.3066 33.9187C60.1713 32.9796 60.0128 32.941 59.6185 32.9526C54.6939 33.0569 52.1234 31.7391 51.9301 22.673ZM56.1821 28.8253C56.5919 29.5982 57.4616 29.8571 59.4252 29.8185C61.9764 29.7644 62.8307 29.3509 63.2057 28.5586C63.6193 27.6853 63.6463 25.0806 63.5922 22.074C63.5265 18.9322 63.2057 17.17 62.8191 16.3932C62.4326 15.6164 61.6131 15.0445 59.5335 15.0909C56.9011 15.145 56.3213 15.5508 55.9463 16.343C55.5714 17.1352 55.4206 19.3766 55.4979 23.1058C55.5289 25.6564 55.7762 28.0485 56.186 28.8253H56.1821Z" fill="#0A0203"/>
<path d="M76.2787 40.1367C69.7383 39.6807 68.6444 37.818 69.0967 31.372C70.0901 17.0734 70.0089 14.8281 70.0089 14.8281C71.1917 14.7934 72.3282 14.8706 73.4878 14.9518C73.4878 14.9518 72.8075 25.3357 72.5872 28.4775C72.247 33.3739 72.1388 34.9428 72.4751 35.7544C72.8114 36.5659 74.2107 36.8558 76.5609 37.0219C79.1082 37.1958 79.8774 36.8558 80.3258 36.1022C80.8167 35.2675 80.9056 33.9767 81.1646 30.2552C81.5318 24.9686 81.872 15.5469 81.872 15.5469C83.1686 15.5407 84.4628 15.6571 85.7374 15.8947C85.7374 15.8947 85.3084 24.6285 84.7672 32.4618C84.3729 38.1388 82.8615 40.5773 76.2787 40.1367Z" fill="#0A0203"/>
<path d="M90.6427 38.3706C90.894 39.0276 91.725 39.387 96.0234 39.8275C100.322 40.2681 104.288 40.4381 104.288 40.4381C104.376 41.3575 104.308 42.2851 104.087 43.1819C104.087 43.1819 100.5 42.7336 95.4204 42.2119C89.7962 41.6361 85.838 41.3501 85.838 41.3501C85.838 41.3501 86.4178 37.2228 87.2218 29.4127C88.076 21.0151 88.3234 16.3043 88.3234 16.3043C88.3234 16.3043 93.7544 16.8608 100.534 17.3593C100.592 18.3139 100.256 20.0645 100.04 20.2693C100.04 20.2693 98.2538 19.9679 96.2979 19.7669C93.3679 19.4655 92.1039 19.4925 91.8217 19.9369C91.5395 20.3814 91.4351 21.162 91.238 22.9165C90.979 25.4555 91.0602 26.5723 91.2148 26.9819C91.4351 27.5577 92.1309 27.6659 95.2581 27.9867C97.214 28.1876 99.1467 28.2108 99.1467 28.2108C99.1991 29.066 99.1248 29.9241 98.9264 30.7575L96.5762 30.5295C92.4749 30.1083 91.6748 30.2242 91.296 30.8194C91.0602 31.2058 90.863 32.3652 90.6814 34.1119C90.5422 35.4761 90.3876 37.7523 90.6427 38.3706Z" fill="#0A0203"/>
<path d="M108.126 17.9622H108.319C114.388 18.4685 117.33 20.9611 116.978 25.6603C116.634 29.7682 114.554 31.0706 112.726 31.6077C114.141 32.1217 115.351 33.2076 115.173 35.3602C115.076 36.5195 114.875 37.5011 114.786 38.6759C114.589 41.0217 115.451 41.5665 118.973 41.8602C120.735 42.0071 122.741 42.0187 122.741 42.0187C122.908 42.4051 122.741 43.9857 122.564 44.1712C122.564 44.1712 120.766 44.4533 116.851 44.1287C112.158 43.7423 110.619 42.78 110.89 39.5338C111.021 37.988 111.238 36.8016 111.304 36.021C111.413 35.2605 111.343 34.4849 111.099 33.7564C110.828 33.1845 110.094 32.57 107.941 32.3922C105.672 32.2029 105.297 32.4463 105.111 32.7439C104.837 33.196 104.725 33.9032 104.562 36.048C104.477 37.0258 104.466 38.6025 104.466 38.6025C104.079 38.6875 101.23 38.6488 100.268 38.3706C100.268 38.3706 100.654 35.1322 100.983 31.2213L101.018 30.8348C101.833 21.0538 101.914 17.6956 101.914 17.6956C101.914 17.6956 103.233 17.5526 108.126 17.9622ZM112.316 29.6175C113.035 29.0108 113.132 27.836 113.306 25.753C113.437 24.2072 113.433 22.8083 113.02 22.1049C112.676 21.4866 111.841 21.1002 108.907 20.8567C106.754 20.6751 106.236 20.7524 105.815 21.1118C105.223 21.6103 105.042 23.4884 104.748 26.8119C104.636 28.1838 104.659 28.8524 105.134 29.405C105.42 29.745 105.992 29.9885 107.168 30.0851C109.773 30.3131 111.551 30.2629 112.316 29.6175Z" fill="#0A0203"/>
<path d="M122.262 36.3766C122.216 37.3543 122.208 38.4557 122.158 39.5532C121.032 39.6432 119.9 39.6199 118.779 39.4836C118.779 39.4836 118.946 37.5243 119.112 33.7989C119.297 29.6794 119.382 24.3696 119.382 24.3696C120.615 24.334 121.849 24.4013 123.07 24.5705C123.07 24.5705 122.525 30.4136 122.262 36.3766Z" fill="#0A0203"/>
<path d="M118.211 19.1486C118.211 19.1486 122.424 18.7621 129.51 18.1786C133.557 17.8578 135.188 17.8501 135.188 17.8501C137.937 26.2631 140.986 34.5331 144.191 42.8727C142.652 43.0819 141.104 43.2109 139.552 43.2592C139.552 43.2592 138.107 38.4053 136.847 35.449C136.344 34.2665 135.93 34.1776 133.754 34.3554H133.511C130.557 34.5911 130.121 34.7418 129.842 35.8664C129.228 38.359 128.377 44.0475 128.377 44.0475C126.988 44.2941 125.582 44.4336 124.172 44.4649C125.181 39.7038 125.9 35.963 127.051 29.9807C128.203 23.9985 128.439 22.3368 128.389 21.7301C128.339 21.1233 127.925 20.9919 126.089 20.9572C123.524 20.9377 120.96 21.0563 118.408 21.3127C118.182 20.6151 118.114 19.8756 118.211 19.1486ZM133.549 23.8864C132.919 22.101 132.691 21.7957 132.366 21.8189C131.961 21.8537 131.775 22.5609 131.45 24.1376L130.349 29.7257C129.889 32.1217 130.055 32.1912 132.892 31.9671H133.093C136.128 31.7275 136.186 31.5188 135.447 29.3354L133.549 23.8864Z" fill="#0A0203"/>
<path d="M11.8182 6.53098L18.2967 14.2793L18.7065 2.60852L11.8182 6.53098Z" fill="#0A0203"/>
<path d="M7.47349 11.8447L15.5562 18.1748L2.66486 19.4694L7.47349 11.8447Z" fill="#0A0203"/>
<path d="M23.863 14.4494L23.7471 2.71289L29.3211 5.01613L23.863 14.4494Z" fill="#0A0203"/>
<path d="M14.4622 40.6816L7.67059 36.0712L16.7042 30.3479L14.4622 40.6816Z" fill="#0A0203"/>
<path d="M5.12715 25.0961L12.6919 26.0545L4.91455 30.5914L5.12715 25.0961Z" fill="#0A0203"/>
</g>
<defs>
<clipPath id="clip0_2_98">
<rect width="144" height="47" fill="white" transform="translate(0.190918)"/>
</clipPath>
</defs>
</svg>
