<svg width="157" height="54" viewBox="0 0 157 54" fill="none" xmlns="http://www.w3.org/2000/svg">
<path d="M77.8928 13.1673H68.8248V37.5243H66.598V13.1673H57.5529V11.299H77.8928V13.1673Z" fill="#FFF9ED"/>
<path d="M86.2721 37.9117C84.6824 37.9352 83.1185 37.5113 81.7615 36.6891C80.4045 35.8669 79.3099 34.68 78.6045 33.2659C77.8374 31.7468 77.4515 30.0662 77.4796 28.3672V27.5925C77.4529 25.845 77.8298 24.1147 78.5815 22.5342C79.2496 21.0988 80.3068 19.876 81.6348 19.0026C82.8913 18.1652 84.3684 17.7135 85.8818 17.7039C88.2693 17.7039 90.1518 18.5013 91.5521 20.1191C92.9525 21.7368 93.6412 23.9469 93.6412 26.7494V27.957H79.6146V28.3672C79.6146 30.5773 80.2574 32.4229 81.52 33.8811C82.1034 34.5867 82.8402 35.1521 83.6751 35.5349C84.51 35.9176 85.4214 36.1078 86.3409 36.0912C87.4022 36.1167 88.455 35.8984 89.4172 35.4532C90.3802 34.9805 91.2148 34.285 91.8506 33.4254L93.205 34.4507C91.644 36.7497 89.3253 37.9117 86.2721 37.9117ZM85.8818 19.5244C85.1053 19.5118 84.335 19.6639 83.6224 19.9704C82.9098 20.2768 82.2713 20.7307 81.7496 21.3016C80.6247 22.4864 79.9589 24.0813 79.7064 26.0864H91.4833V25.8585C91.4144 23.9902 90.8864 22.4636 89.8763 21.2788C88.8662 20.094 87.5347 19.5244 85.8818 19.5244Z" fill="#FFF9ED"/>
<path d="M100.069 35.7243H112.833V37.5471H97.3832V35.9522L109.298 19.9117H97.7505V18.0433H112.03V19.6611L100.069 35.7243Z" fill="#FFF9ED"/>
<path d="M115.955 27.499C115.929 25.7516 116.306 24.0212 117.057 22.4408C117.736 21.0042 118.81 19.7876 120.156 18.9319C121.517 18.0848 123.096 17.6493 124.702 17.6788C127.319 17.6788 129.431 18.5902 131.061 20.4129C132.691 22.2357 133.494 24.6509 133.494 27.6585V28.1142C133.523 29.8692 133.147 31.6075 132.392 33.1952C131.72 34.6304 130.644 35.8419 129.293 36.6836C127.927 37.5136 126.35 37.9403 124.748 37.914C122.154 37.914 120.019 37.0026 118.389 35.1798C116.759 33.357 115.955 30.9418 115.955 27.9342V27.499ZM118.136 28.0914C118.136 30.4155 118.756 32.3294 119.95 33.8332C121.144 35.337 122.751 36.0661 124.725 36.0661C125.641 36.0876 126.549 35.8971 127.378 35.5095C128.207 35.1219 128.933 34.548 129.5 33.8332C130.717 32.3294 131.314 30.3699 131.314 27.9092V27.499C131.328 26.0898 131.047 24.693 130.487 23.3978C129.996 22.2402 129.184 21.2447 128.145 20.5269C127.131 19.842 125.929 19.484 124.702 19.5016C123.788 19.4841 122.882 19.679 122.057 20.0707C121.232 20.4623 120.51 21.0398 119.95 21.7573C118.733 23.261 118.113 25.2433 118.113 27.6813L118.136 28.0914Z" fill="#FFF9ED"/>
<path d="M149.748 32.5823C149.761 32.0793 149.649 31.5808 149.42 31.1315C149.192 30.6821 148.855 30.296 148.439 30.0077C147.567 29.3697 146.281 28.8456 144.514 28.4811C143.115 28.222 141.751 27.8014 140.45 27.2279C139.486 26.7494 138.775 26.1798 138.315 25.4963C137.831 24.7585 137.583 23.8928 137.604 23.0127C137.604 21.4634 138.247 20.2102 139.555 19.2077C140.864 18.2051 142.516 17.7039 144.537 17.7039C146.718 17.7039 148.485 18.2507 149.817 19.3216C150.459 19.8202 150.974 20.4613 151.321 21.1934C151.667 21.9255 151.836 22.7281 151.814 23.5368H149.633C149.638 22.9821 149.509 22.4344 149.257 21.9391C149.006 21.4437 148.639 21.0151 148.187 20.6887C147.223 19.9368 146.006 19.5494 144.537 19.5494C143.113 19.5494 141.966 19.8684 141.093 20.4836C140.687 20.7542 140.354 21.1206 140.126 21.5501C139.898 21.9796 139.78 22.4587 139.785 22.9444C139.764 23.3794 139.851 23.8129 140.039 24.2064C140.228 24.5999 140.511 24.9412 140.864 25.2001C141.575 25.7241 142.907 26.2254 144.812 26.6811C146.718 27.1368 148.141 27.5925 149.105 28.0937C149.953 28.514 150.68 29.1412 151.217 29.9165C151.838 30.974 152.048 32.2204 151.807 33.4209C151.566 34.6213 150.891 35.6927 149.909 36.433C148.577 37.4127 146.832 37.914 144.674 37.914C142.379 37.914 140.519 37.3672 139.119 36.2735C137.719 35.1798 136.984 33.7899 136.984 32.1039H139.165C139.187 32.6834 139.344 33.2501 139.622 33.7598C139.901 34.2696 140.294 34.7087 140.772 35.0431C141.759 35.7494 143.067 36.0912 144.697 36.0912C146.213 36.0912 147.429 35.7494 148.37 35.1115C149.289 34.4264 149.748 33.5834 149.748 32.5823Z" fill="#FFF9ED"/>
<path d="M41.5061 39.0054C40.9781 29.7319 29.2241 25.5168 28.0993 25.0838C28.0533 25.0611 28.0533 25.0155 28.0763 24.9699L40.1975 12.894V11.5952C40.1946 11.4934 40.1526 11.3966 40.08 11.3245C40.0075 11.2525 39.9099 11.2108 39.8073 11.2079H17.4702V3.93954V1.7522L9.22868 3.46106V4.69144H9.68782C9.68782 4.69144 11.708 4.69144 11.708 6.6965V11.1851H5.326C5.26653 11.1893 5.21058 11.2147 5.16842 11.2566C5.12626 11.2984 5.1007 11.3539 5.09644 11.413V14.2611H11.731V29.7319C11.731 34.5851 14.8761 37.9573 20.3857 37.5016C21.5208 37.3894 22.6098 36.9979 23.5538 36.3623C23.758 36.2327 23.926 36.0541 24.0423 35.8431C24.1587 35.632 24.2196 35.3953 24.2195 35.1547V33.6281C22.4289 34.813 20.9137 34.7446 20.9137 34.7446C17.4243 34.7446 17.4932 30.3471 17.4932 30.3471V14.2611H33.563L21.9927 25.8357C21.9698 27.3623 21.9468 28.5471 21.9468 28.5699C21.9457 28.5792 21.9467 28.5885 21.9498 28.5973C21.9529 28.6061 21.9579 28.6141 21.9645 28.6207C21.9712 28.6273 21.9792 28.6323 21.9881 28.6353C21.9969 28.6384 22.0064 28.6394 22.0157 28.6383C32.6218 30.4155 35.4914 37.2281 35.4914 39.2104C35.4914 39.2104 36.6392 48.8484 26.9285 49.5092C26.9285 49.5092 20.5694 49.7826 19.4445 47.2535C19.4344 47.2327 19.4288 47.21 19.428 47.1869C19.4272 47.1639 19.4312 47.1409 19.4399 47.1195C19.4485 47.098 19.4615 47.0786 19.4781 47.0625C19.4948 47.0463 19.5146 47.0338 19.5363 47.0256C20.0651 46.8067 20.5159 46.436 20.8309 45.961C21.1459 45.486 21.3106 44.9284 21.304 44.3598C21.304 42.4914 20.1562 40.9649 17.7457 40.9649C15.7944 40.9649 14.1874 42.4914 14.1874 44.3598C14.1874 44.3598 13.2691 52.4712 26.9055 52.2433C42.4703 51.9699 41.5061 39.0054 41.5061 39.0054Z" fill="#FFF9ED"/>
</svg>
