<svg width="30" height="29" viewBox="0 0 30 29" fill="none" xmlns="http://www.w3.org/2000/svg">
<path d="M19.8571 9.00001L24.5238 4.33334M27.1904 1.66667L24.5238 4.33334L27.1904 1.66667ZM14.3771 14.48C15.0656 15.1593 15.6128 15.9681 15.9874 16.8597C16.362 17.7514 16.5566 18.7084 16.5598 19.6755C16.563 20.6427 16.3749 21.6009 16.0063 22.4951C15.6377 23.3892 15.0958 24.2016 14.412 24.8855C13.7281 25.5694 12.9157 26.1113 12.0215 26.4799C11.1273 26.8485 10.1691 27.0366 9.20194 27.0334C8.23478 27.0301 7.27782 26.8356 6.38615 26.461C5.49448 26.0864 4.68572 25.5391 4.00643 24.8507C2.6706 23.4676 1.93144 21.6152 1.94815 19.6924C1.96486 17.7696 2.7361 15.9303 4.09576 14.5707C5.45542 13.211 7.29471 12.4398 9.21749 12.4231C11.1403 12.4064 12.9927 13.1455 14.3758 14.4813L14.3771 14.48ZM14.3771 14.48L19.8571 9.00001L14.3771 14.48ZM19.8571 9.00001L23.8571 13L28.5238 8.33334L24.5238 4.33334L19.8571 9.00001Z" stroke="#F04E6E" stroke-width="2" stroke-linecap="round" stroke-linejoin="round"/>
</svg>
