<svg width="213" height="69" viewBox="0 0 213 69" fill="none" xmlns="http://www.w3.org/2000/svg">
<g clip-path="url(#clip0_2_762)">
<path d="M32.9737 65.4371C51.1846 65.4371 65.9475 50.7885 65.9475 32.7185C65.9475 14.6486 51.1846 0 32.9737 0C14.7628 0 0 14.6486 0 32.7185C0 50.7885 14.7628 65.4371 32.9737 65.4371Z" fill="#E74B6F"/>
<path d="M45.524 68.9999C43.0883 61.6244 43.1283 61.7492 36.1585 42.8341C35.1636 40.1392 34.1344 37.5181 33.374 36.5934C32.4877 35.487 31.6587 35.2488 26.1183 36.9848L23.5968 37.7621C23.2023 37.4273 22.1331 34.9254 22.1445 34.0063C29.2172 31.4192 36.0213 28.9342 46.5818 25.394C47.0678 25.9614 47.7882 28.2875 47.8397 28.7981L43.9002 30.364C40.0179 31.9128 39.3261 32.4347 39.3604 33.8474C39.3604 34.653 39.8292 36.0544 40.8241 38.7492C48.886 60.6373 51.762 66.5887 51.762 66.5887C51.2245 67.0028 47.7024 68.4155 45.524 68.9999Z" fill="#231F20"/>
<path d="M78.3319 51.208C80.4532 55.429 80.8305 55.9566 85.4218 55.2531C87.1371 54.9921 88.3321 54.6858 88.3321 54.6858C88.7095 55.2134 89.0068 57.5225 88.8181 57.8175C86.5999 58.5404 84.3209 59.0645 82.0084 59.3834C76.2907 60.2627 75.1472 59.3266 73.3919 55.3382L70.9962 49.7556C70.27 48.116 69.7326 48.0819 66.4621 48.5812L66.1762 48.6266C61.6021 49.3244 60.6015 49.8293 60.4585 51.4633C60.1212 54.9524 60.3099 61.1478 60.3099 61.1478C59.8981 61.2566 59.4799 61.3399 59.0577 61.3974C57.7369 61.596 55.4327 61.891 53.9118 61.9648C55.4613 50.3683 56.7249 38.8229 57.8341 25.5301C59.0863 25.2805 60.7444 24.9628 62.2939 24.7302C63.8434 24.4976 65.2899 24.333 66.159 24.2593C69.0693 31.2773 73.3976 41.3476 77.0569 48.6549L78.3319 51.208ZM64.9812 34.4657C63.7919 31.7312 63.3288 30.6362 62.6427 30.744C61.8365 30.8688 61.6821 32.5254 61.3791 35.487L60.773 41.8185C60.6561 42.7137 60.6197 43.6174 60.6644 44.519C60.8702 45.8296 61.6249 45.7672 64.7811 45.2906L65.067 45.2452C67.6513 44.8481 68.7892 44.6155 68.5776 43.2482C68.3793 42.4494 68.1016 41.6721 67.7485 40.9278L64.9812 34.4657Z" fill="#231F20"/>
<path d="M76.5309 33.2859C76.2222 21.2412 80.2074 17.4003 87.4631 17.2585C95.5936 17.0883 98.6525 21.6384 98.8984 32.5767C99.0756 40.8202 97.8978 45.7447 92.7119 47.5829C92.3631 47.7077 92.2488 47.7644 92.2545 47.997C92.2545 49.1317 93.1636 49.8806 95.7765 49.8239C96.9177 49.8189 98.0515 49.6409 99.1385 49.2962C99.6245 50.4309 99.756 53.9484 99.5902 54.3569C98.2501 54.8929 96.8153 55.1572 95.3706 55.1342C90.7221 55.2363 89.3956 53.0123 88.9211 49.7955C88.721 48.4169 88.4865 48.3601 87.9033 48.3771C80.619 48.5303 76.8168 46.5957 76.5309 33.2859ZM82.8203 42.3179C83.4264 43.4526 84.7129 43.8327 87.6175 43.776C91.3911 43.6966 92.6547 43.0895 93.2093 41.9265C93.8211 40.6443 93.8611 36.8204 93.7811 32.4065C93.6839 27.794 93.2093 25.2069 92.6376 24.0666C92.0658 22.9262 90.8537 22.0866 87.7776 22.1547C83.8838 22.2341 83.0262 22.8298 82.4716 23.9928C81.917 25.1559 81.694 28.4465 81.8083 33.9213C81.8541 37.6658 82.22 41.1776 82.8261 42.3179H82.8203Z" fill="#231F20"/>
<path d="M112.546 58.9238C102.872 58.2544 101.254 55.5198 101.923 46.0565C103.392 25.0649 103.272 21.7687 103.272 21.7687C105.022 21.7176 106.703 21.8311 108.418 21.9502C108.418 21.9502 107.412 37.1947 107.086 41.8071C106.583 48.9954 106.423 51.2988 106.92 52.4902C107.418 53.6816 109.487 54.1071 112.964 54.3511C116.732 54.6064 117.87 54.1071 118.533 53.0008C119.259 51.7753 119.39 49.8804 119.774 44.4169C120.317 36.6557 120.82 22.8239 120.82 22.8239C122.738 22.8147 124.652 22.9857 126.538 23.3345C126.538 23.3345 125.903 36.1564 125.102 47.6564C124.519 55.9907 122.284 59.5706 112.546 58.9238Z" fill="#231F20"/>
<path d="M133.793 56.3312C134.165 57.2957 135.394 57.8233 141.752 58.4701C148.11 59.1169 153.977 59.3665 153.977 59.3665C154.106 60.7162 154.006 62.078 153.679 63.3946C153.679 63.3946 148.373 62.7365 140.86 61.9706C132.541 61.1252 126.686 60.7054 126.686 60.7054C126.686 60.7054 127.544 54.6462 128.733 43.1802C129.997 30.8519 130.363 23.936 130.363 23.936C130.363 23.936 138.396 24.753 148.425 25.4849C148.511 26.8862 148.013 29.4563 147.693 29.757C147.693 29.757 145.051 29.3144 142.158 29.0194C137.824 28.5769 135.955 28.6166 135.537 29.269C135.12 29.9215 134.965 31.0675 134.674 33.6432C134.291 37.3707 134.411 39.0103 134.639 39.6117C134.965 40.457 135.995 40.6159 140.62 41.0868C143.513 41.3818 146.372 41.4158 146.372 41.4158C146.45 42.6712 146.34 43.931 146.046 45.1546L142.57 44.8199C136.503 44.2015 135.32 44.3717 134.76 45.2454C134.411 45.8127 134.119 47.5147 133.85 50.0791C133.645 52.0818 133.416 55.4235 133.793 56.3312Z" fill="#231F20"/>
<path d="M159.654 26.3698H159.94C168.917 27.113 173.268 30.7724 172.748 37.6712C172.239 43.7021 169.163 45.614 166.458 46.4026C168.551 47.1572 170.341 48.7514 170.078 51.9115C169.935 53.6135 169.637 55.0546 169.506 56.7793C169.214 60.2231 170.489 61.023 175.698 61.4542C178.305 61.6698 181.273 61.6868 181.273 61.6868C181.519 62.2541 181.273 64.5746 181.01 64.8469C181.01 64.8469 178.351 65.261 172.559 64.7845C165.618 64.2171 163.342 62.8045 163.742 58.0388C163.937 55.7694 164.257 54.0277 164.354 52.8817C164.516 51.7652 164.412 50.6266 164.051 49.557C163.651 48.7174 162.565 47.8153 159.38 47.5543C156.024 47.2763 155.469 47.6338 155.194 48.0706C154.789 48.7344 154.623 49.7726 154.383 52.9214C154.257 54.3567 154.24 56.6715 154.24 56.6715C153.668 56.7963 149.454 56.7396 148.03 56.3311C148.03 56.3311 148.602 51.5768 149.088 45.8353L149.139 45.2679C150.346 30.9085 150.466 25.9783 150.466 25.9783C150.466 25.9783 152.416 25.7684 159.654 26.3698ZM165.852 43.4808C166.916 42.5901 167.059 40.8654 167.316 37.8074C167.51 35.538 167.505 33.4843 166.893 32.4517C166.384 31.544 165.149 30.9766 160.809 30.6192C157.624 30.3525 156.858 30.466 156.235 30.9936C155.36 31.7255 155.092 34.4828 154.657 39.3619C154.491 41.376 154.526 42.3575 155.229 43.1688C155.652 43.668 156.498 44.0255 158.236 44.1673C162.09 44.502 164.72 44.4283 165.852 43.4808Z" fill="#231F20"/>
<path d="M180.564 53.4037C180.495 54.8391 180.484 56.456 180.409 58.0673C178.744 58.1994 177.07 58.1652 175.412 57.9652C175.412 57.9652 175.658 55.0887 175.904 49.6196C176.178 43.5717 176.304 35.7765 176.304 35.7765C178.127 35.7243 179.952 35.823 181.759 36.0715C181.759 36.0715 180.953 44.6497 180.564 53.4037Z" fill="#231F20"/>
<path d="M174.572 28.1116C174.572 28.1116 180.804 27.5442 191.284 26.6876C197.271 26.2167 199.684 26.2053 199.684 26.2053C203.749 38.5563 208.26 50.6974 213 62.9406C210.724 63.2477 208.434 63.4371 206.139 63.508C206.139 63.508 204 56.3822 202.136 52.042C201.393 50.306 200.781 50.1755 197.562 50.4365H197.202C192.834 50.7825 192.188 51.0038 191.776 52.6548C190.867 56.3141 189.609 64.6654 189.609 64.6654C187.554 65.0273 185.475 65.2322 183.388 65.2781C184.881 58.2884 185.944 52.7966 187.648 44.0142C189.352 35.2317 189.701 32.7922 189.626 31.9014C189.552 31.0107 188.94 30.8178 186.224 30.7667C182.431 30.7381 178.638 30.9124 174.863 31.2887C174.528 30.2646 174.428 29.1789 174.572 28.1116V28.1116ZM197.259 35.0672C196.327 32.4461 195.99 31.9979 195.51 32.0319C194.909 32.083 194.635 33.1212 194.155 35.436L192.525 43.6397C191.845 47.1572 192.091 47.2593 196.287 46.9303H196.585C201.073 46.5785 201.159 46.2722 200.067 43.0667L197.259 35.0672Z" fill="#231F20"/>
<path d="M17.1987 9.58786L26.7815 20.963L27.3876 3.82935L17.1987 9.58786Z" fill="#231F20"/>
<path d="M10.7721 17.3889L22.7277 26.682L3.6593 28.5825L10.7721 17.3889Z" fill="#231F20"/>
<path d="M35.015 21.2128L34.8434 3.98267L43.0883 7.36402L35.015 21.2128Z" fill="#231F20"/>
<path d="M21.1096 59.7239L11.0637 52.9555L24.4258 44.5532L21.1096 59.7239Z" fill="#231F20"/>
<path d="M7.30147 36.843L18.4909 38.25L6.987 44.9106L7.30147 36.843Z" fill="#231F20"/>
<path d="M85.4276 55.2532C80.8534 55.9567 80.4589 55.4291 78.3377 51.2081L77.0569 48.6607C73.3976 41.3477 69.0522 31.2774 66.1591 24.2651C65.816 24.2934 65.3586 24.3388 64.8669 24.3955C63.1835 18.033 59.607 12.3213 54.6037 8.00552C49.6005 3.68969 43.4027 0.969961 36.8187 0.200986C30.2346 -0.567989 23.5698 0.649483 17.6934 3.69463C11.817 6.73979 7.00173 11.4713 3.87548 17.2721C0.749222 23.073 -0.542899 29.674 0.167613 36.2143C0.878125 42.7546 3.5583 48.9307 7.85862 53.9372C12.1589 58.9437 17.8798 62.5482 24.2753 64.2808C30.6707 66.0133 37.4439 65.7935 43.7115 63.6499C44.2833 65.2384 44.7636 66.7816 45.5011 69.0056C47.6796 68.4382 51.2188 67.0085 51.7391 66.6057C51.7391 66.6057 51.0416 65.159 49.372 61.0912C51.1803 60.0581 52.8861 58.8576 54.4664 57.5056C54.2797 58.9996 54.0891 60.4917 53.8947 61.9819C55.4156 61.9251 57.7198 61.6301 59.0406 61.4145C59.4627 61.357 59.8809 61.2737 60.2927 61.1649C60.2927 61.1649 60.1041 54.9695 60.4414 51.4804C60.5958 49.8238 61.5849 49.3188 66.1591 48.6437L66.4449 48.5983C69.7154 48.0991 70.2529 48.1331 70.979 49.7727L73.3747 55.3553C75.09 59.3267 76.2336 60.2799 81.9913 59.4005C84.3038 59.0816 86.5828 58.5576 88.801 57.8346C88.9897 57.5169 88.6924 55.2305 88.315 54.7029C88.3379 54.6916 87.1543 54.9922 85.4276 55.2532ZM65.067 45.2453L64.7811 45.2907C64.2093 45.3758 63.7576 45.4382 63.3402 45.495C64.5958 42.5519 65.4087 39.4418 65.7531 36.2643L67.7486 40.9279C68.1016 41.6722 68.3793 42.4495 68.5776 43.2483C68.7892 44.6156 67.6514 44.8482 65.067 45.2453Z" fill="white"/>
<path d="M95.7651 49.8295C93.1521 49.8863 92.2659 49.1544 92.243 48.0027C92.243 47.7701 92.3517 47.7133 92.7004 47.5885C97.8864 45.7503 99.0642 40.8485 98.9155 32.5824C98.6811 21.6384 95.6222 17.0883 87.4802 17.2642C80.2245 17.4174 76.2393 21.2356 76.5481 33.2915C76.834 46.6014 80.6533 48.536 87.9091 48.3885C88.4808 48.3885 88.7267 48.4282 88.9268 49.8068C89.4014 53.0237 90.7279 55.2476 95.3763 55.1455C96.821 55.1685 98.2558 54.9042 99.5959 54.3683C99.7618 53.9598 99.6302 50.4479 99.1442 49.3076C98.0514 49.6521 96.9118 49.8281 95.7651 49.8295V49.8295ZM87.6232 43.776C84.7186 43.8327 83.4321 43.4583 82.8261 42.3179C82.22 41.1776 81.8541 37.6657 81.774 33.9213C81.6597 28.4465 81.9398 25.0992 82.4372 23.9928C82.9347 22.8865 83.8495 22.2341 87.7432 22.1547C90.8193 22.0866 92.0029 22.9262 92.6032 24.0666C93.2036 25.2069 93.6725 27.794 93.7468 32.4065C93.844 36.8431 93.804 40.6443 93.175 41.9265C92.6604 43.1179 91.3968 43.6852 87.6232 43.776Z" fill="white"/>
<path d="M119.796 44.4001C119.413 49.8636 119.282 51.7755 118.556 52.9839C117.892 54.1186 116.755 54.5895 112.987 54.3342C109.51 54.0902 107.446 53.6591 106.943 52.4733C106.44 51.2876 106.606 48.9785 107.109 41.7903C107.435 37.1948 108.441 21.9334 108.441 21.9334C106.726 21.8142 105.011 21.7008 103.295 21.7518C103.295 21.7518 103.415 25.0537 101.946 46.0397C101.277 55.5256 102.895 58.2375 112.569 58.907C122.244 59.5764 124.542 55.9738 125.148 47.6396C125.949 36.1396 126.618 23.3007 126.618 23.3007C124.732 22.9518 122.818 22.7809 120.9 22.79C120.9 22.79 120.34 36.6388 119.796 44.4001Z" fill="white"/>
<path d="M141.747 58.4701C135.388 57.8233 134.159 57.2957 133.788 56.3312C133.416 55.3667 133.645 52.0818 133.85 50.0905C134.119 47.5091 134.422 45.8014 134.76 45.2567C135.331 44.383 136.503 44.2128 142.57 44.8312L146.04 45.1886C146.339 43.9544 146.451 42.6828 146.372 41.4158C146.372 41.4158 143.513 41.3591 140.626 41.0641C136 40.5932 134.971 40.4343 134.645 39.589C134.416 38.9876 134.296 37.348 134.679 33.6205C134.948 31.0448 135.12 29.9045 135.543 29.2463C135.966 28.5882 137.83 28.5542 142.164 28.9967C145.057 29.2917 147.699 29.7343 147.699 29.7343C148.019 29.4166 148.516 26.8635 148.43 25.4622C138.396 24.753 130.363 23.936 130.363 23.936C130.363 23.936 129.997 30.8519 128.727 43.1802C127.538 54.6462 126.68 60.7054 126.68 60.7054C126.68 60.7054 132.535 61.1252 140.855 61.9706C148.368 62.7365 153.674 63.3946 153.674 63.3946C154 62.078 154.101 60.7162 153.971 59.3665C153.971 59.3665 148.087 59.1169 141.747 58.4701Z" fill="white"/>
<path d="M175.704 61.4771C170.495 61.0459 169.22 60.2459 169.512 56.8022C169.654 55.1002 169.952 53.6534 170.083 51.9344C170.346 48.7743 168.557 47.1801 166.464 46.4255C169.151 45.6653 172.227 43.725 172.753 37.6941C173.274 30.7953 168.923 27.1359 159.946 26.3927H159.66C152.421 25.7913 150.477 26.0353 150.477 26.0353C150.477 26.0353 150.357 30.9428 149.151 45.3249L149.099 45.8922C148.619 51.6337 148.042 56.388 148.042 56.388C149.465 56.7965 153.656 56.8532 154.251 56.7284C154.251 56.7284 154.251 54.4137 154.394 52.9783C154.657 49.8182 154.8 48.7913 155.206 48.1275C155.48 47.6907 156.035 47.3333 159.391 47.6113C162.576 47.8722 163.662 48.7459 164.063 49.614C164.424 50.6835 164.528 51.8221 164.366 52.9386C164.268 54.0733 163.948 55.7753 163.754 58.0957C163.354 62.8614 165.629 64.2627 172.57 64.8414C178.362 65.318 181.021 64.9038 181.021 64.9038C181.278 64.6315 181.53 62.3394 181.284 61.7437C181.278 61.7097 178.311 61.6927 175.704 61.4771ZM158.213 44.1788C156.498 44.037 155.629 43.6796 155.206 43.1803C154.52 42.369 154.485 41.3875 154.634 39.3735C155.046 34.4943 155.337 31.7371 156.212 31.0052C156.841 30.4776 157.607 30.3641 160.786 30.6307C165.126 30.9882 166.361 31.5555 166.87 32.4632C167.482 33.4958 167.487 35.5212 167.293 37.8189C167.036 40.8656 166.893 42.5903 165.829 43.4924C164.766 44.3944 162.09 44.5022 158.213 44.1788Z" fill="white"/>
<path d="M176.304 35.7763C176.304 35.7763 176.178 43.5716 175.904 49.6194C175.658 55.0886 175.412 57.965 175.412 57.965C177.07 58.1651 178.744 58.1993 180.409 58.0671C180.484 56.4559 180.495 54.839 180.564 53.4036C180.953 44.6495 181.753 36.0713 181.753 36.0713C179.948 35.8226 178.126 35.724 176.304 35.7763V35.7763Z" fill="white"/>
<path d="M32.9737 65.4371C51.1846 65.4371 65.9475 50.7885 65.9475 32.7185C65.9475 14.6486 51.1846 0 32.9737 0C14.7628 0 0 14.6486 0 32.7185C0 50.7885 14.7628 65.4371 32.9737 65.4371Z" fill="#F72A58"/>
<path d="M45.524 68.9999C43.0883 61.6244 43.1283 61.7492 36.1585 42.8341C35.1636 40.1392 34.1344 37.5181 33.374 36.5934C32.4877 35.487 31.6587 35.2488 26.1183 36.9848L23.5968 37.7621C23.2023 37.4273 22.1331 34.9254 22.1445 34.0063C29.2172 31.4192 36.0213 28.9342 46.5818 25.394C47.0678 25.9614 47.7882 28.2875 47.8397 28.7981L43.9002 30.364C40.0179 31.9128 39.3261 32.4347 39.3604 33.8474C39.3604 34.653 39.8292 36.0544 40.8241 38.7492C48.886 60.6373 51.762 66.5887 51.762 66.5887C51.2245 67.0028 47.7024 68.4155 45.524 68.9999Z" fill="#0A0203"/>
<path d="M78.3319 51.208C80.4532 55.429 80.8305 55.9566 85.4218 55.2531C87.1371 54.9921 88.3321 54.6858 88.3321 54.6858C88.7095 55.2134 89.0068 57.5225 88.8181 57.8175C86.5999 58.5404 84.3209 59.0645 82.0084 59.3834C76.2907 60.2627 75.1472 59.3266 73.3919 55.3382L70.9962 49.7556C70.27 48.116 69.7326 48.0819 66.4621 48.5812L66.1762 48.6266C61.6021 49.3244 60.6015 49.8293 60.4585 51.4633C60.1212 54.9524 60.3099 61.1478 60.3099 61.1478C59.8981 61.2566 59.4799 61.3399 59.0577 61.3974C57.7369 61.596 55.4327 61.891 53.9118 61.9648C55.4613 50.3683 56.7249 38.8229 57.8341 25.5301C59.0863 25.2805 60.7444 24.9628 62.2939 24.7302C63.8434 24.4976 65.2899 24.333 66.159 24.2593C69.0693 31.2773 73.3976 41.3476 77.0569 48.6549L78.3319 51.208ZM64.9812 34.4657C63.7919 31.7312 63.3288 30.6362 62.6427 30.744C61.8365 30.8688 61.6821 32.5254 61.3791 35.487L60.773 41.8185C60.6561 42.7137 60.6197 43.6174 60.6644 44.519C60.8702 45.8296 61.6249 45.7672 64.7811 45.2906L65.067 45.2452C67.6513 44.8481 68.7892 44.6155 68.5776 43.2482C68.3793 42.4494 68.1016 41.6721 67.7485 40.9278L64.9812 34.4657Z" fill="#0A0203"/>
<path d="M76.5309 33.2859C76.2222 21.2412 80.2074 17.4003 87.4631 17.2585C95.5936 17.0883 98.6525 21.6384 98.8984 32.5767C99.0756 40.8202 97.8978 45.7447 92.7119 47.5829C92.3631 47.7077 92.2488 47.7644 92.2545 47.997C92.2545 49.1317 93.1636 49.8806 95.7765 49.8239C96.9177 49.8189 98.0515 49.6409 99.1385 49.2962C99.6245 50.4309 99.756 53.9484 99.5902 54.3569C98.2501 54.8929 96.8153 55.1572 95.3706 55.1342C90.7221 55.2363 89.3956 53.0123 88.9211 49.7955C88.721 48.4169 88.4865 48.3601 87.9033 48.3771C80.619 48.5303 76.8168 46.5957 76.5309 33.2859ZM82.8203 42.3179C83.4264 43.4526 84.7129 43.8327 87.6175 43.776C91.3911 43.6966 92.6547 43.0895 93.2093 41.9265C93.8211 40.6443 93.8611 36.8204 93.7811 32.4065C93.6839 27.794 93.2093 25.2069 92.6376 24.0666C92.0658 22.9262 90.8537 22.0866 87.7776 22.1547C83.8838 22.2341 83.0262 22.8298 82.4716 23.9928C81.917 25.1559 81.694 28.4465 81.8083 33.9213C81.8541 37.6658 82.22 41.1776 82.8261 42.3179H82.8203Z" fill="#0A0203"/>
<path d="M112.546 58.9238C102.872 58.2544 101.254 55.5198 101.923 46.0565C103.392 25.0649 103.272 21.7687 103.272 21.7687C105.022 21.7176 106.703 21.8311 108.418 21.9502C108.418 21.9502 107.412 37.1947 107.086 41.8071C106.583 48.9954 106.423 51.2988 106.92 52.4902C107.418 53.6816 109.487 54.1071 112.964 54.3511C116.732 54.6064 117.87 54.1071 118.533 53.0008C119.259 51.7753 119.39 49.8804 119.774 44.4169C120.317 36.6557 120.82 22.8239 120.82 22.8239C122.738 22.8147 124.652 22.9857 126.538 23.3345C126.538 23.3345 125.903 36.1564 125.102 47.6564C124.519 55.9907 122.284 59.5706 112.546 58.9238Z" fill="#0A0203"/>
<path d="M133.793 56.3312C134.165 57.2957 135.394 57.8233 141.752 58.4701C148.11 59.1169 153.977 59.3665 153.977 59.3665C154.106 60.7162 154.006 62.078 153.679 63.3946C153.679 63.3946 148.373 62.7365 140.86 61.9706C132.541 61.1252 126.686 60.7054 126.686 60.7054C126.686 60.7054 127.544 54.6462 128.733 43.1802C129.997 30.8519 130.363 23.936 130.363 23.936C130.363 23.936 138.396 24.753 148.425 25.4849C148.511 26.8862 148.013 29.4563 147.693 29.757C147.693 29.757 145.051 29.3144 142.158 29.0194C137.824 28.5769 135.955 28.6166 135.537 29.269C135.12 29.9215 134.965 31.0675 134.674 33.6432C134.291 37.3707 134.411 39.0103 134.639 39.6117C134.965 40.457 135.995 40.6159 140.62 41.0868C143.513 41.3818 146.372 41.4158 146.372 41.4158C146.45 42.6712 146.34 43.931 146.046 45.1546L142.57 44.8199C136.503 44.2015 135.32 44.3717 134.76 45.2454C134.411 45.8127 134.119 47.5147 133.85 50.0791C133.645 52.0818 133.416 55.4235 133.793 56.3312Z" fill="#0A0203"/>
<path d="M159.654 26.3698H159.94C168.917 27.113 173.268 30.7724 172.748 37.6712C172.239 43.7021 169.163 45.614 166.458 46.4026C168.551 47.1572 170.341 48.7514 170.078 51.9115C169.935 53.6135 169.637 55.0546 169.506 56.7793C169.214 60.2231 170.489 61.023 175.698 61.4542C178.305 61.6698 181.273 61.6868 181.273 61.6868C181.519 62.2541 181.273 64.5746 181.01 64.8469C181.01 64.8469 178.351 65.261 172.559 64.7845C165.618 64.2171 163.342 62.8045 163.742 58.0388C163.937 55.7694 164.257 54.0277 164.354 52.8817C164.516 51.7652 164.412 50.6266 164.051 49.557C163.651 48.7174 162.565 47.8153 159.38 47.5543C156.024 47.2763 155.469 47.6338 155.194 48.0706C154.789 48.7344 154.623 49.7726 154.383 52.9214C154.257 54.3567 154.24 56.6715 154.24 56.6715C153.668 56.7963 149.454 56.7396 148.03 56.3311C148.03 56.3311 148.602 51.5768 149.088 45.8353L149.139 45.2679C150.346 30.9085 150.466 25.9783 150.466 25.9783C150.466 25.9783 152.416 25.7684 159.654 26.3698ZM165.852 43.4808C166.916 42.5901 167.059 40.8654 167.316 37.8074C167.51 35.538 167.505 33.4843 166.893 32.4517C166.384 31.544 165.149 30.9766 160.809 30.6192C157.624 30.3525 156.858 30.466 156.235 30.9936C155.36 31.7255 155.092 34.4828 154.657 39.3619C154.491 41.376 154.526 42.3575 155.229 43.1688C155.652 43.668 156.498 44.0255 158.236 44.1673C162.09 44.502 164.72 44.4283 165.852 43.4808Z" fill="#0A0203"/>
<path d="M180.564 53.4037C180.495 54.8391 180.484 56.456 180.409 58.0673C178.744 58.1994 177.07 58.1652 175.412 57.9652C175.412 57.9652 175.658 55.0887 175.904 49.6196C176.178 43.5717 176.304 35.7765 176.304 35.7765C178.127 35.7243 179.952 35.823 181.759 36.0715C181.759 36.0715 180.953 44.6497 180.564 53.4037Z" fill="#0A0203"/>
<path d="M174.572 28.1116C174.572 28.1116 180.804 27.5442 191.284 26.6876C197.271 26.2167 199.684 26.2053 199.684 26.2053C203.749 38.5563 208.26 50.6974 213 62.9406C210.724 63.2477 208.434 63.4371 206.139 63.508C206.139 63.508 204 56.3822 202.136 52.042C201.393 50.306 200.781 50.1755 197.562 50.4365H197.202C192.834 50.7825 192.188 51.0038 191.776 52.6548C190.867 56.3141 189.609 64.6654 189.609 64.6654C187.554 65.0273 185.475 65.2322 183.388 65.2781C184.881 58.2884 185.944 52.7966 187.648 44.0142C189.352 35.2317 189.701 32.7922 189.626 31.9014C189.552 31.0107 188.94 30.8178 186.224 30.7667C182.431 30.7381 178.638 30.9124 174.863 31.2887C174.528 30.2646 174.428 29.1789 174.572 28.1116V28.1116ZM197.259 35.0672C196.327 32.4461 195.99 31.9979 195.51 32.0319C194.909 32.083 194.635 33.1212 194.155 35.436L192.525 43.6397C191.845 47.1572 192.091 47.2593 196.287 46.9303H196.585C201.073 46.5785 201.159 46.2722 200.067 43.0667L197.259 35.0672Z" fill="#0A0203"/>
<path d="M17.1987 9.58786L26.7815 20.963L27.3876 3.82935L17.1987 9.58786Z" fill="#0A0203"/>
<path d="M10.7721 17.3889L22.7277 26.682L3.6593 28.5825L10.7721 17.3889Z" fill="#0A0203"/>
<path d="M35.015 21.2128L34.8434 3.98267L43.0883 7.36402L35.015 21.2128Z" fill="#0A0203"/>
<path d="M21.1096 59.7239L11.0637 52.9555L24.4258 44.5532L21.1096 59.7239Z" fill="#0A0203"/>
<path d="M7.30147 36.843L18.4909 38.25L6.987 44.9106L7.30147 36.843Z" fill="#0A0203"/>
</g>
<defs>
<clipPath id="clip0_2_762">
<rect width="213" height="69" fill="white"/>
</clipPath>
</defs>
</svg>
