<svg width="187" height="187" viewBox="0 0 187 187" fill="none" xmlns="http://www.w3.org/2000/svg">
<g clip-path="url(#clip0_2_57)">
<path d="M93.22 186.44C144.704 186.44 186.44 144.704 186.44 93.22C186.44 41.736 144.704 0 93.22 0C41.736 0 0 41.736 0 93.22C0 144.704 41.736 186.44 93.22 186.44Z" fill="#F04E6E"/>
<path d="M67.5 27.3L65.14 46.86L53.29 26.83L67.5 27.3Z" fill="#0A0203"/>
<path d="M143.31 120.9C142.834 120.897 142.373 120.74 141.994 120.452C141.615 120.164 141.34 119.762 141.209 119.304C141.079 118.847 141.1 118.36 141.27 117.916C141.439 117.471 141.748 117.094 142.15 116.84C144.021 114.588 144.949 111.7 144.74 108.78C144.45 106.46 143.08 104.78 140.53 103.67C127.64 98.01 127.95 91.19 128.19 85.67C128.32 82.89 128.42 80.67 126.93 78.75C123.93 74.87 120.93 74.44 117.36 73.95C113.79 73.46 110.04 72.95 106.36 69.2C104.156 66.9053 102.626 64.0473 101.94 60.94C100.94 57.58 100.27 55.14 94.3 53.06C91.3628 52.1113 88.2631 51.7711 85.19 52.06C84.6105 52.0998 84.0389 51.9077 83.601 51.5261C83.1632 51.1445 82.8948 50.6045 82.855 50.025C82.8152 49.4455 83.0073 48.8739 83.389 48.436C83.7706 47.9981 84.3106 47.7298 84.89 47.69C88.556 47.3618 92.2503 47.7803 95.75 48.92C103.85 51.75 105.07 55.99 106.15 59.72C106.648 62.1199 107.8 64.3351 109.48 66.12C112.13 68.8 114.84 69.18 117.98 69.61C121.9 70.16 126.35 70.77 130.42 76.08C132.89 79.29 132.73 82.79 132.59 85.87C132.37 90.87 132.18 95.17 142.31 99.61C147.67 101.96 149 105.98 149.18 108.94C149.49 114.06 146.53 119.32 144.44 120.55C144.104 120.771 143.712 120.892 143.31 120.9V120.9Z" fill="#0A0203"/>
<path d="M129.05 123.89L128.71 123.82L41.56 106.17C38.5729 105.721 35.8561 104.187 33.93 101.86C32.6832 100.291 31.8279 98.448 31.4349 96.483C31.0419 94.518 31.1225 92.4877 31.67 90.56C34.8315 80.1112 41.8111 71.2358 51.22 65.7C58.89 52.7 76.7 47.62 90.89 47.17C102.283 46.8471 113.538 49.7224 123.38 55.47C135.033 62.3505 144.021 72.9636 148.89 85.59C155.03 101.59 154.04 113.59 146.02 120.36C143.363 122.6 140.117 124.027 136.67 124.47C134.117 124.784 131.526 124.587 129.05 123.89V123.89ZM61.8 61.09C70.7202 58.3572 80.2845 58.5785 89.0688 61.721C97.8531 64.8635 105.387 70.7591 110.55 78.53C116.1 86.63 117.84 95.93 119.55 104.93C119.79 106.2 120.02 107.47 120.27 108.74C120.756 111.094 121.856 113.278 123.457 115.071C125.059 116.864 127.105 118.202 129.39 118.95C129.67 119.05 129.94 119.14 130.22 119.22L132.65 119.71C134.475 119.944 136.328 119.799 138.094 119.283C139.859 118.766 141.499 117.89 142.91 116.71C150.91 109.98 148.11 97.05 144.4 87.38C139.922 75.7713 131.655 66.0145 120.94 59.69C111.888 54.4058 101.537 51.7626 91.06 52.06C89.06 52.12 86.97 52.28 84.86 52.55C76.7 53.55 68.13 56.2 61.8 61.09ZM69.51 64.4C64.6122 65.0166 59.868 66.5212 55.51 68.84C50.9177 71.2203 46.8474 74.4944 43.5382 78.4699C40.229 82.4453 37.7477 87.0421 36.24 91.99C35.6873 93.8244 35.8645 95.8014 36.7347 97.5082C37.6049 99.2151 39.1008 100.52 40.91 101.15L118.6 116.88C117.016 114.741 115.932 112.274 115.43 109.66C115.18 108.38 114.94 107.1 114.7 105.82C113.04 96.92 111.48 88.52 106.51 81.27C101.57 73.9536 94.3207 68.5035 85.92 65.79C80.5983 64.1425 74.9826 63.6682 69.46 64.4H69.51Z" fill="#0A0203"/>
<path d="M48.63 105.29C48.1963 105.29 47.7712 105.169 47.4022 104.941C47.0331 104.714 46.7346 104.388 46.54 104L40.04 91.0001C39.9021 90.7261 39.8196 90.4276 39.7973 90.1217C39.775 89.8158 39.8133 89.5085 39.91 89.2175C40.0068 88.9264 40.16 88.6573 40.361 88.4256C40.5619 88.1939 40.8067 88.0042 41.0811 87.8673C41.3556 87.7304 41.6544 87.649 41.9603 87.6279C42.2663 87.6067 42.5735 87.6461 42.8642 87.744C43.1548 87.8418 43.4234 87.996 43.6544 88.1978C43.8853 88.3997 44.0741 88.6451 44.21 88.9201L50.72 101.92C50.9975 102.467 51.0482 103.101 50.861 103.686C50.6738 104.27 50.2638 104.756 49.72 105.04C49.383 105.213 49.0085 105.298 48.63 105.29V105.29Z" fill="#0A0203"/>
<path d="M60.95 108.29C60.5176 108.29 60.0936 108.17 59.726 107.942C59.3585 107.714 59.062 107.388 58.87 107L52.36 94C52.0829 93.4471 52.0367 92.8066 52.2318 92.2196C52.4268 91.6326 52.847 91.1472 53.4 90.87C53.953 90.5929 54.5934 90.5467 55.1804 90.7418C55.7674 90.9368 56.2529 91.3571 56.53 91.91L63.04 104.91C63.2168 105.266 63.2998 105.662 63.2813 106.059C63.2627 106.456 63.1433 106.842 62.9341 107.181C62.7249 107.519 62.4329 107.798 62.0858 107.992C61.7386 108.187 61.3478 108.289 60.95 108.29V108.29Z" fill="#0A0203"/>
<path d="M73.28 111.29C72.846 111.291 72.4205 111.171 72.0512 110.943C71.6819 110.715 71.3837 110.388 71.19 110L64.68 97.0001C64.4409 96.4507 64.4217 95.8307 64.6261 95.2676C64.8306 94.7045 65.2433 94.2413 65.7791 93.9734C66.3149 93.7054 66.9331 93.6532 67.5063 93.8275C68.0794 94.0018 68.564 94.3892 68.86 94.9101L75.36 107.91C75.6407 108.458 75.693 109.095 75.5057 109.681C75.3183 110.268 74.9064 110.756 74.36 111.04C74.0256 111.21 73.6549 111.296 73.28 111.29V111.29Z" fill="#0A0203"/>
<path d="M85.6 112.73C85.1663 112.73 84.7412 112.609 84.3722 112.381C84.0031 112.153 83.7046 111.828 83.51 111.44L77.01 98.44C76.8721 98.1661 76.7896 97.8676 76.7673 97.5617C76.745 97.2558 76.7833 96.9485 76.88 96.6574C76.9768 96.3664 77.13 96.0973 77.331 95.8656C77.5319 95.6339 77.7766 95.4442 78.0511 95.3073C78.3256 95.1703 78.6244 95.089 78.9304 95.0678C79.2364 95.0466 79.5435 95.0861 79.8342 95.1839C80.1249 95.2817 80.3934 95.436 80.6243 95.6378C80.8553 95.8396 81.0441 96.085 81.18 96.36L87.68 109.36C87.9602 109.907 88.0124 110.542 87.8249 111.127C87.6375 111.712 87.2257 112.198 86.68 112.48C86.3461 112.651 85.9751 112.737 85.6 112.73V112.73Z" fill="#0A0203"/>
<path d="M97.92 115.73C97.4873 115.731 97.0629 115.611 96.6952 115.383C96.3274 115.155 96.0312 114.828 95.8401 114.44L89.3301 101.44C89.1928 101.166 89.1109 100.868 89.0889 100.563C89.0669 100.257 89.1052 99.9502 89.2018 99.6596C89.2984 99.3689 89.4513 99.1001 89.6517 98.8686C89.8522 98.637 90.0962 98.4472 90.37 98.31C90.6438 98.1727 90.942 98.0908 91.2474 98.0688C91.5529 98.0468 91.8597 98.0851 92.1504 98.1817C92.441 98.2783 92.7098 98.4312 92.9414 98.6316C93.173 98.8321 93.3628 99.0762 93.5 99.35L100.01 112.35C100.291 112.898 100.343 113.535 100.156 114.121C99.9684 114.708 99.5564 115.196 99.01 115.48C98.6731 115.652 98.2985 115.738 97.92 115.73Z" fill="#0A0203"/>
<path d="M110.25 118.09C109.816 118.091 109.39 117.971 109.021 117.743C108.652 117.515 108.354 117.188 108.16 116.8L101.65 103.8C101.513 103.526 101.431 103.228 101.409 102.923C101.387 102.617 101.425 102.31 101.522 102.02C101.618 101.729 101.771 101.46 101.972 101.229C102.172 100.997 102.416 100.807 102.69 100.67C102.964 100.533 103.262 100.451 103.567 100.429C103.873 100.407 104.18 100.445 104.47 100.542C104.761 100.638 105.03 100.791 105.261 100.992C105.493 101.192 105.683 101.436 105.82 101.71L112.33 114.71C112.611 115.258 112.663 115.895 112.476 116.481C112.288 117.068 111.876 117.556 111.33 117.84C110.996 118.01 110.625 118.096 110.25 118.09Z" fill="#0A0203"/>
<path d="M27.39 50.26L39.2 32.63L54.14 55.89L27.39 50.26Z" fill="#0A0203"/>
<path d="M155.54 153.28L132.31 165.41L129.86 131.36L155.54 153.28Z" fill="#0A0203"/>
<path d="M104.19 150.39L118.31 130.57L119.32 159.31L104.19 150.39Z" fill="#0A0203"/>
</g>
<defs>
<clipPath id="clip0_2_57">
<rect width="186.44" height="186.44" fill="white"/>
</clipPath>
</defs>
</svg>
