<svg width="303" height="302" viewBox="0 0 303 302" fill="none" xmlns="http://www.w3.org/2000/svg">
<g clip-path="url(#clip0_2_863)">
<path d="M116.697 267.095C180.856 286.289 248.428 249.839 267.622 185.68C286.817 121.521 250.366 53.9496 186.207 34.755C122.049 15.5603 54.4773 52.011 35.2826 116.17C16.088 180.329 52.5387 247.9 116.697 267.095Z" fill="#A066AA"/>
<path d="M203.554 204.094C202.963 203.913 202.446 203.545 202.081 203.045C201.717 202.546 201.524 201.941 201.531 201.323C201.539 200.704 201.747 200.105 202.124 199.614C202.501 199.124 203.027 198.769 203.622 198.602C206.794 196.494 209.027 193.241 209.855 189.524C210.358 186.524 209.278 183.92 206.514 181.586C192.56 169.727 195.489 161.343 197.847 154.554C199.045 151.138 199.997 148.409 198.856 145.46C196.564 139.507 192.986 137.852 188.72 135.911C184.454 133.969 179.971 131.935 176.783 125.89C174.891 122.209 174.051 118.077 174.354 113.949C174.361 109.389 174.435 106.098 167.771 101.28C164.464 99.0031 160.728 97.4235 156.791 96.6378C156.054 96.4713 155.413 96.0189 155.01 95.38C154.607 94.7412 154.473 93.9682 154.64 93.2313C154.806 92.4943 155.259 91.8536 155.898 91.4502C156.537 91.0467 157.309 90.9136 158.046 91.0801C162.737 92.0379 167.185 93.9367 171.122 96.6618C180.161 103.208 180.1 108.947 180.055 113.998C179.781 117.174 180.391 120.365 181.819 123.215C184.122 127.543 187.358 129.027 191.111 130.733C195.791 132.88 201.109 135.3 204.201 143.434C206.082 148.355 204.578 152.657 203.255 156.444C201.117 162.592 199.265 167.876 210.246 177.19C216.049 182.117 216.208 187.622 215.328 191.378C213.806 197.874 208.156 203.326 205.093 204.079C204.592 204.229 204.058 204.234 203.554 204.094Z" fill="#0A0203"/>
<path d="M184.669 202.504L184.271 202.29L82.2337 147.799C78.6784 146.126 75.8649 143.201 74.3321 139.583C73.3633 137.163 72.9846 134.548 73.2275 131.952C73.4703 129.357 74.3277 126.857 75.7287 124.659C83.5641 112.816 95.5711 104.358 109.36 100.967C123.765 87.6263 147.854 87.9357 165.705 92.6653C180.023 96.5104 192.977 104.29 203.099 115.122C215.056 128.041 222.3 144.618 223.66 162.168C225.346 184.396 219.639 198.981 207.12 204.428C202.97 206.229 198.388 206.796 193.924 206.06C190.634 205.499 187.488 204.29 184.669 202.504ZM124.301 99.1779C136.427 99.0964 148.256 102.931 158.028 110.111C167.8 117.291 174.995 127.433 178.541 139.029C182.437 151.193 181.126 163.427 179.914 175.284C179.739 176.956 179.552 178.625 179.39 180.301C179.119 183.416 179.675 186.547 181.002 189.379C182.33 192.21 184.381 194.641 186.949 196.425C187.261 196.654 187.564 196.866 187.883 197.07L190.728 198.587C192.915 199.559 195.279 200.069 197.672 200.084C200.064 200.099 202.434 199.619 204.633 198.674C217.111 193.269 218.443 176.112 217.425 162.678C216.167 146.543 209.504 131.304 198.513 119.425C189.202 109.465 177.289 102.312 164.121 98.7764C161.606 98.1056 158.942 97.5257 156.212 97.0755C145.655 95.3293 133.988 95.4366 124.301 99.1779ZM132.675 106.177C126.342 105.12 119.868 105.226 113.573 106.491C106.962 107.742 100.668 110.304 95.0612 114.024C89.4548 117.745 84.6495 122.55 80.928 128.156C79.5553 130.236 79.0391 132.765 79.4872 135.217C79.9353 137.668 81.313 139.852 83.3327 141.312L174.272 189.876C173.099 186.62 172.673 183.142 173.026 179.7C173.192 178.012 173.37 176.327 173.548 174.643C174.797 162.933 175.985 151.883 172.482 140.991C169.058 130.034 162.06 120.541 152.607 114.028C146.622 109.996 139.836 107.303 132.715 106.135L132.675 106.177Z" fill="#0A0203"/>
<path d="M91.3848 149.342C90.8444 149.18 90.3597 148.871 89.9847 148.45C89.6097 148.028 89.3592 147.511 89.2612 146.955L86.0077 128.331C85.938 127.938 85.9465 127.536 86.0328 127.146C86.119 126.757 86.2813 126.388 86.5104 126.061C86.7394 125.735 87.0307 125.457 87.3676 125.243C87.7044 125.029 88.0801 124.884 88.4732 124.815C88.8662 124.747 89.2689 124.757 89.6581 124.845C90.0473 124.933 90.4154 125.096 90.7412 125.326C91.067 125.557 91.3441 125.849 91.5566 126.187C91.7692 126.524 91.913 126.901 91.9798 127.294L95.2333 145.918C95.3788 146.703 95.2068 147.514 94.7552 148.173C94.3035 148.832 93.609 149.285 92.8239 149.433C92.344 149.522 91.8497 149.49 91.3848 149.342Z" fill="#0A0203"/>
<path d="M105.619 157.674C105.08 157.514 104.596 157.206 104.222 156.785C103.849 156.363 103.602 155.846 103.508 155.291L100.242 136.663C100.173 136.271 100.182 135.869 100.269 135.48C100.355 135.091 100.518 134.723 100.746 134.397C100.975 134.07 101.266 133.792 101.602 133.579C101.938 133.365 102.313 133.219 102.705 133.15C103.098 133.081 103.5 133.09 103.889 133.177C104.278 133.263 104.646 133.425 104.972 133.654C105.298 133.883 105.576 134.174 105.79 134.51C106.004 134.846 106.149 135.221 106.218 135.613L109.484 154.241C109.553 154.634 109.543 155.037 109.456 155.426C109.368 155.815 109.205 156.183 108.975 156.509C108.745 156.835 108.453 157.113 108.116 157.326C107.778 157.539 107.402 157.683 107.009 157.75C106.546 157.835 106.07 157.809 105.619 157.674Z" fill="#0A0203"/>
<path d="M119.866 166.009C119.325 165.849 118.84 165.54 118.465 165.118C118.089 164.697 117.839 164.179 117.743 163.622L114.477 144.995C114.384 144.221 114.591 143.441 115.056 142.816C115.521 142.19 116.207 141.767 116.975 141.633C117.743 141.499 118.533 141.664 119.182 142.095C119.831 142.526 120.29 143.189 120.465 143.949L123.719 162.573C123.864 163.36 123.692 164.173 123.24 164.834C122.788 165.495 122.092 165.95 121.306 166.1C120.826 166.187 120.332 166.156 119.866 166.009Z" fill="#0A0203"/>
<path d="M134.683 172.397C134.142 172.236 133.656 171.928 133.281 171.506C132.906 171.084 132.656 170.566 132.559 170.01L129.306 151.386C129.236 150.994 129.244 150.591 129.331 150.201C129.417 149.812 129.579 149.443 129.808 149.116C130.037 148.79 130.329 148.512 130.665 148.298C131.002 148.084 131.378 147.939 131.771 147.87C132.164 147.802 132.567 147.812 132.956 147.9C133.345 147.988 133.713 148.151 134.039 148.382C134.365 148.612 134.642 148.904 134.854 149.242C135.067 149.579 135.211 149.956 135.278 150.349L138.531 168.973C138.677 169.758 138.505 170.57 138.053 171.228C137.601 171.887 136.907 172.34 136.122 172.488C135.642 172.577 135.148 172.545 134.683 172.397Z" fill="#0A0203"/>
<path d="M148.917 180.729C148.377 180.569 147.893 180.261 147.52 179.84C147.147 179.419 146.899 178.901 146.806 178.346L143.54 159.718C143.401 158.926 143.582 158.11 144.044 157.452C144.506 156.793 145.211 156.345 146.003 156.205C146.796 156.066 147.611 156.247 148.27 156.709C148.928 157.171 149.377 157.876 149.516 158.668L152.782 177.296C152.927 178.083 152.755 178.897 152.303 179.558C151.851 180.219 151.155 180.674 150.369 180.824C149.884 180.913 149.386 180.88 148.917 180.729Z" fill="#0A0203"/>
<path d="M163.403 188.267C162.862 188.106 162.376 187.798 162.001 187.376C161.626 186.954 161.376 186.436 161.279 185.88L158.013 167.252C157.874 166.46 158.055 165.645 158.517 164.986C158.979 164.327 159.684 163.879 160.476 163.74C161.269 163.6 162.084 163.782 162.743 164.244C163.402 164.705 163.85 165.41 163.989 166.203L167.255 184.83C167.401 185.618 167.228 186.431 166.776 187.092C166.324 187.753 165.629 188.208 164.842 188.358C164.362 188.445 163.868 188.414 163.403 188.267Z" fill="#0A0203"/>
<path d="M85.4324 72.8452L106.723 55.278L116.669 89.8344L85.4324 72.8452Z" fill="#0A0203"/>
<path d="M206.723 249.006L173.252 255.461L182.893 212.115L206.723 249.006Z" fill="#0A0203"/>
<path d="M143.809 226.259L168.794 206.824L159.338 243.016L143.809 226.259Z" fill="#0A0203"/>
<path d="M145.189 57.1326L134.952 80.6407L127.656 51.2491L145.189 57.1326Z" fill="#0A0203"/>
</g>
<defs>
<clipPath id="clip0_2_863">
<rect width="242.515" height="242.515" fill="white" transform="translate(70.0376) rotate(16.6558)"/>
</clipPath>
</defs>
 <style type="text/css"><![CDATA[
        #rect1 { fill: url(#Gradient1); }
      ]]></style>
</svg>
