<svg width="240" height="239" viewBox="0 0 240 239" fill="none" xmlns="http://www.w3.org/2000/svg">
<g clip-path="url(#clip0_2_889)">
<path d="M151.971 206.662C200.04 188.853 224.57 135.45 206.762 87.3812C188.954 39.3127 135.55 14.782 87.4815 32.5904C39.413 50.3987 14.8823 103.802 32.6907 151.871C50.499 199.939 103.903 224.47 151.971 206.662Z" fill="#FCAF17"/>
<path d="M176.058 128.147C175.612 128.315 175.124 128.331 174.667 128.195C174.211 128.059 173.812 127.777 173.531 127.392C173.25 127.007 173.102 126.541 173.111 126.065C173.12 125.588 173.285 125.128 173.58 124.754C174.549 122.005 174.416 118.987 173.211 116.333C172.137 114.267 170.268 113.176 167.512 113.018C153.52 112.192 151.441 105.721 149.765 100.481C148.915 97.8437 148.241 95.7363 146.185 94.4591C142.042 91.8742 139.093 92.5105 135.59 93.2878C132.087 94.0652 128.41 94.8862 123.677 92.6579C120.822 91.2818 118.405 89.1416 116.693 86.4747C114.597 83.6835 113.118 81.6406 106.825 81.7636C103.757 81.8932 100.749 82.6465 97.9824 83.9777C97.7213 84.0953 97.4396 84.1604 97.1534 84.1691C96.8672 84.1779 96.582 84.1302 96.3142 84.0288C96.0464 83.9274 95.8012 83.7742 95.5926 83.578C95.384 83.3818 95.2161 83.1464 95.0984 82.8853C94.9808 82.6242 94.9157 82.3425 94.9069 82.0563C94.8982 81.7701 94.9459 81.4849 95.0473 81.2171C95.1487 80.9493 95.3019 80.7041 95.4981 80.4955C95.6943 80.2869 95.9297 80.119 96.1908 80.0013C99.4971 78.4285 103.088 77.5425 106.746 77.3967C115.288 77.2372 117.903 80.7704 120.202 83.8794C121.492 85.949 123.331 87.6199 125.515 88.7064C128.926 90.2885 131.578 89.7094 134.658 89.0247C138.518 88.1789 142.874 87.2126 148.52 90.759C151.927 92.9052 152.989 96.2283 153.933 99.149C155.448 103.897 156.758 107.977 167.761 108.615C173.569 108.959 176.21 112.249 177.393 114.953C179.453 119.627 178.509 125.561 176.992 127.429C176.753 127.75 176.43 127.998 176.058 128.147Z" fill="#0A0203"/>
<path d="M163.788 135.868L163.446 135.92L75.9636 149.59C73.0194 150.202 69.9528 149.709 67.3489 148.205C65.6451 147.168 64.2118 145.741 63.1671 144.043C62.1223 142.344 61.496 140.421 61.3395 138.433C60.6773 127.586 64.1202 116.887 70.9841 108.463C73.6579 93.6689 88.5199 82.7689 101.613 77.4404C112.138 73.1982 123.641 71.9895 134.818 73.9515C148.082 76.3397 160.149 83.1387 169.064 93.2459C180.331 106.061 183.548 117.61 178.402 126.705C176.7 129.719 174.162 132.175 171.094 133.777C168.822 134.952 166.338 135.663 163.788 135.868ZM79.2863 100.492C86.6695 94.8552 95.6758 91.7536 104.964 91.6491C114.253 91.5447 123.327 94.443 130.835 99.9126C138.828 105.552 143.66 113.637 148.369 121.448L150.359 124.756C151.633 126.779 153.418 128.43 155.534 129.542C157.65 130.655 160.022 131.188 162.411 131.09C162.698 131.09 162.99 131.077 163.279 131.055L165.718 130.672C167.502 130.26 169.182 129.483 170.652 128.39C172.122 127.297 173.35 125.912 174.259 124.322C179.401 115.271 172.314 104.168 165.496 96.426C157.3 87.1388 146.212 80.8879 134.023 78.6843C123.744 76.8844 113.166 77.9969 103.487 81.896C101.64 82.6438 99.744 83.5162 97.858 84.5016C90.5804 88.302 83.4862 93.7441 79.2863 100.492ZM87.6391 100.912C83.2801 103.183 79.3712 106.229 76.1037 109.9C72.6391 113.71 69.9718 118.174 68.2588 123.03C66.5457 127.887 65.8216 133.036 66.129 138.177C66.2591 140.072 67.1151 141.844 68.5189 143.123C69.9226 144.403 71.7659 145.092 73.6649 145.047L151.642 132.861C149.426 131.408 147.561 129.48 146.185 127.216C145.509 126.107 144.842 124.995 144.175 123.883C139.556 116.145 135.184 108.845 128.036 103.795C120.894 98.6706 112.24 96.0894 103.458 96.464C97.9224 96.765 92.5182 98.2636 87.6183 100.856L87.6391 100.912Z" fill="#0A0203"/>
<path d="M82.2695 146.319C81.8646 146.47 81.4257 146.505 81.0021 146.42C80.5785 146.335 80.1871 146.133 79.8719 145.837L69.2971 135.952C69.0736 135.744 68.8933 135.494 68.7667 135.216C68.64 134.938 68.5695 134.638 68.5592 134.332C68.5488 134.027 68.5988 133.723 68.7063 133.437C68.8138 133.151 68.9766 132.889 69.1855 132.667C69.3944 132.444 69.6452 132.265 69.9236 132.139C70.2019 132.013 70.5024 131.944 70.8076 131.935C71.1129 131.926 71.4169 131.977 71.7024 132.085C71.9878 132.194 72.249 132.358 72.471 132.567L83.0458 142.453C83.3338 142.723 83.5481 143.062 83.6684 143.438C83.7887 143.814 83.8111 144.215 83.7333 144.602C83.6556 144.989 83.4804 145.35 83.2242 145.65C82.968 145.951 82.6394 146.181 82.2695 146.319Z" fill="#0A0203"/>
<path d="M94.8099 144.858C94.405 145.009 93.9661 145.044 93.5425 144.959C93.1189 144.874 92.7275 144.673 92.4123 144.377L81.8468 134.488C81.3968 134.067 81.1322 133.485 81.1112 132.87C81.0903 132.254 81.3147 131.656 81.7352 131.206C82.1556 130.756 82.7376 130.491 83.3531 130.47C83.9686 130.449 84.5672 130.674 85.0172 131.094L95.5827 140.983C96.0343 141.398 96.3035 141.974 96.3314 142.587C96.3594 143.199 96.1438 143.798 95.7317 144.251C95.4791 144.527 95.1624 144.735 94.8099 144.858Z" fill="#0A0203"/>
<path d="M107.35 143.398C106.945 143.548 106.507 143.582 106.083 143.497C105.66 143.412 105.268 143.211 104.953 142.916L94.3872 133.027C94.1643 132.819 93.9847 132.569 93.8585 132.291C93.7323 132.014 93.662 131.714 93.6516 131.409C93.6412 131.105 93.691 130.801 93.798 130.515C93.9051 130.23 94.0673 129.968 94.2755 129.745C94.4837 129.522 94.7337 129.343 95.0113 129.216C95.2889 129.09 95.5886 129.02 95.8934 129.01C96.1982 128.999 96.502 129.049 96.7876 129.156C97.0731 129.263 97.3348 129.425 97.5576 129.634L108.132 139.519C108.582 139.935 108.849 140.511 108.877 141.123C108.905 141.734 108.691 142.332 108.281 142.787C108.027 143.065 107.706 143.275 107.35 143.398Z" fill="#0A0203"/>
<path d="M119.351 140.481C118.947 140.632 118.51 140.666 118.087 140.581C117.665 140.495 117.275 140.292 116.963 139.996L106.388 130.11C106.164 129.902 105.984 129.652 105.858 129.374C105.731 129.096 105.66 128.796 105.65 128.491C105.64 128.186 105.69 127.881 105.797 127.596C105.905 127.31 106.067 127.048 106.276 126.825C106.485 126.602 106.736 126.423 107.014 126.297C107.293 126.172 107.593 126.102 107.898 126.093C108.204 126.084 108.508 126.135 108.793 126.244C109.079 126.352 109.34 126.516 109.562 126.726L120.137 136.612C120.587 137.025 120.856 137.6 120.883 138.211C120.91 138.822 120.694 139.419 120.282 139.87C120.028 140.149 119.708 140.359 119.351 140.481Z" fill="#0A0203"/>
<path d="M131.901 139.017C131.496 139.168 131.057 139.203 130.633 139.118C130.21 139.033 129.818 138.831 129.503 138.535L118.928 128.65C118.515 128.22 118.283 127.647 118.279 127.051C118.275 126.454 118.5 125.879 118.908 125.444C119.315 125.008 119.874 124.746 120.47 124.71C121.065 124.674 121.652 124.869 122.108 125.253L132.674 135.142C133.125 135.556 133.394 136.133 133.422 136.745C133.45 137.357 133.235 137.956 132.823 138.41C132.569 138.684 132.253 138.892 131.901 139.017Z" fill="#0A0203"/>
<path d="M144.22 136.959C143.815 137.109 143.376 137.143 142.953 137.058C142.529 136.973 142.138 136.772 141.822 136.477L131.257 126.588C131.034 126.38 130.854 126.13 130.728 125.852C130.602 125.575 130.531 125.275 130.521 124.97C130.511 124.665 130.56 124.362 130.668 124.076C130.775 123.791 130.937 123.529 131.145 123.306C131.353 123.083 131.603 122.904 131.881 122.777C132.158 122.651 132.458 122.581 132.763 122.57C133.068 122.56 133.372 122.61 133.657 122.717C133.943 122.824 134.204 122.986 134.427 123.194L144.993 133.084C145.444 133.498 145.713 134.075 145.741 134.687C145.769 135.299 145.554 135.898 145.142 136.352C144.889 136.627 144.572 136.835 144.22 136.959Z" fill="#0A0203"/>
<path d="M43.4036 102.287L48.3319 81.7412L70.3264 98.2904L43.4036 102.287Z" fill="#0A0203"/>
<path d="M74.3217 66.4849L78.8875 85.573L60.8918 70.9614L74.3217 66.4849Z" fill="#0A0203"/>
</g>
<defs>
<clipPath id="clip0_2_889">
<rect width="185.633" height="185.633" fill="white" transform="translate(0.445801 64.8352) rotate(-20.3286)"/>
</clipPath>
</defs>
</svg>
