<svg xmlns="http://www.w3.org/2000/svg" viewBox="0 0 372.53 121.62"><defs><style>.cls-1{fill:#98439e;}</style></defs><g id="purple"><circle class="cls-1" cx="57.67" cy="57.67" r="57.67"/><path d="M289.05,366.6c-4.26-13-4.2-12.79-16.38-46.12-1.74-4.76-3.54-9.37-4.87-11-1.55-1.95-3-2.37-12.69.68l-4.41,1.37c-.69-.58-2.57-5.05-2.54-6.61,12.36-4.52,24.3-8.89,42.74-15.15.85,1,2.1,5.1,2.2,6l-6.89,2.76c-6.8,2.72-8,3.64-7.94,6.13,0,1.43.82,3.9,2.56,8.65,14.1,38.57,19.13,49.07,19.13,49.07C299,363.07,292.86,365.56,289.05,366.6Z" transform="translate(-209.43 -244.98)"/><path d="M346.44,335.23c3.71,7.45,4.37,8.37,12.4,7.14,3-.47,5.09-1,5.09-1,.66.92,1.18,4.95.85,5.52a68.6,68.6,0,0,1-11.91,2.76c-10,1.55-12-.1-15.08-7.14l-4.18-9.84c-1.27-2.88-2.21-2.95-7.93-2.06l-.5.07c-8,1.24-9.75,2.12-10,5-.59,6.16-.26,17.07-.26,17.07a15.16,15.16,0,0,1-2.19.44c-2.31.36-6.34.88-9,1,2.71-20.46,4.93-40.82,6.87-64.24,2.19-.45,5.09-1,7.8-1.41s5.24-.71,6.76-.84c5.09,12.37,12.66,30.12,19.06,43Zm-23.36-29.5c-2.08-4.82-2.89-6.75-4.09-6.56-1.41.21-1.68,3.13-2.21,8.35l-1.06,11.16a25,25,0,0,0-.19,4.76c.36,2.31,1.68,2.21,7.2,1.36l.5-.08c4.52-.69,6.51-1.1,6.14-3.51a21.94,21.94,0,0,0-1.45-4.1Z" transform="translate(-209.43 -244.98)"/><path d="M343.28,303.64c-.54-21.23,6.43-28,19.12-28.24,14.22-.3,19.57,7.71,20,27,.3,14.53-1.75,23.21-10.83,26.45-.6.21-.8.32-.79.72,0,2,1.59,3.32,6.16,3.23a19.77,19.77,0,0,0,5.88-.94c.85,2,1.08,8.21.79,8.93a19.19,19.19,0,0,1-7.39,1.37c-8.12.17-10.44-3.74-11.27-9.42-.36-2.43-.76-2.52-1.78-2.5C350.45,330.52,343.78,327.1,343.28,303.64Zm11,15.93c1.06,2,3.31,2.67,8.38,2.56,6.61-.14,8.82-1.2,9.79-3.25,1.07-2.26,1.13-9,1-16.79-.17-8.12-1-12.68-2-14.69s-3.12-3.49-8.5-3.38c-6.81.15-8.31,1.19-9.28,3.25s-1.36,7.85-1.16,17.5C352.59,311.37,353.23,317.56,354.29,319.57Z" transform="translate(-209.43 -244.98)"/><path d="M406.27,348.83c-16.92-1.17-19.75-5.95-18.59-22.67,2.57-37,2.37-42.82,2.37-42.82,3.06-.09,6,.12,9,.33,0,0-1.77,26.86-2.33,35-.88,12.67-1.16,16.72-.29,18.82s4.49,2.86,10.57,3.28c6.59.46,8.58-.42,9.74-2.38,1.27-2.15,1.5-5.49,2.17-15.12.95-13.68,1.83-38.07,1.83-38.07a54.88,54.88,0,0,1,10,.9s-1.17,22.63-2.57,42.91C427.2,343.67,423.3,350,406.27,348.83Z" transform="translate(-209.43 -244.98)"/><path d="M443.42,344.26c.64,1.7,2.8,2.64,13.91,3.78s21.39,1.58,21.39,1.58a21.19,21.19,0,0,1-.52,7.09s-9.28-1.15-22.42-2.5C441.23,352.72,431,352,431,352s1.5-10.68,3.57-30.89c2.23-21.73,2.87-33.92,2.87-33.92s14.05,1.44,31.59,2.72c.15,2.47-.72,7-1.29,7.53,0,0-4.61-.78-9.67-1.3-7.58-.77-10.85-.7-11.59.45s-1,3.16-1.5,7.71c-.67,6.57-.46,9.45-.06,10.52.56,1.48,2.37,1.77,10.46,2.6,5.05.52,10.05.62,10.05.62a22.19,22.19,0,0,1-.58,6.58l-6.06-.62c-10.61-1.09-12.69-.79-13.66.74-.61,1-1.12,4-1.59,8.52C443.17,336.78,442.77,342.66,443.42,344.26Z" transform="translate(-209.43 -244.98)"/><path d="M488.65,291.45l.51.05c15.7,1.31,23.31,7.75,22.4,19.91-.89,10.63-6.27,14.06-11,15.4,3.66,1.32,6.79,4.14,6.33,9.7-.26,3-.77,5.55-1,8.58-.51,6.08,1.72,7.49,10.83,8.25,4.56.38,9.75.4,9.75.4.43,1.06,0,5.1-.46,5.57,0,0-4.65.74-14.78-.11-12.15-1-16.12-3.48-15.42-11.89.34-4.05.9-7.06,1.06-9.09a12.44,12.44,0,0,0-.53-5.85c-.69-1.49-2.59-3.07-8.16-3.54-5.88-.49-6.85.14-7.32.92-.71,1.17-1,3-1.43,8.55-.21,2.53-.24,6.61-.24,6.61-1,.21-8.37.11-10.86-.61,0,0,1-8.37,1.85-18.5l.08-1c2.12-25.31,2.33-34,2.33-34S476,290.4,488.65,291.45Zm10.84,30.17c1.87-1.58,2.12-4.62,2.57-10,.34-4.05.33-7.62-.74-9.44-.89-1.61-3.05-2.6-10.64-3.24-5.57-.46-6.91-.27-8,.66-1.53,1.3-2,6.15-2.76,14.76-.29,3.54-.24,5.28,1,6.71.74.87,2.22,1.51,5.26,1.76C492.92,323.42,497.52,323.29,499.49,321.62Z" transform="translate(-209.43 -244.98)"/><path d="M525.22,339.1c-.11,2.54-.14,5.39-.26,8.23a44.6,44.6,0,0,1-8.74-.19s.43-5.06.86-14.7c.48-10.66.7-24.41.7-24.41a57.07,57.07,0,0,1,9.53.53S525.91,323.68,525.22,339.1Z" transform="translate(-209.43 -244.98)"/><path d="M514.75,294.53s10.9-1,29.23-2.51c10.47-.84,14.68-.86,14.68-.86,7.12,21.78,15,43.18,23.3,64.76a118.56,118.56,0,0,1-12.05,1s-3.74-12.56-7-20.21c-1.3-3.06-2.37-3.29-8-2.84l-.63.05c-7.64.61-8.77,1-9.49,3.92C543.19,344.25,541,359,541,359a72.57,72.57,0,0,1-10.88,1.08c2.6-12.33,4.47-22,7.45-37.48s3.59-19.79,3.46-21.36-1.2-1.91-5.95-1.95a187.34,187.34,0,0,0-19.87.92A12.63,12.63,0,0,1,514.75,294.53Zm39.68,12.25c-1.63-4.61-2.22-5.4-3.06-5.34-1,.08-1.53,1.91-2.37,6l-2.85,14.45c-1.19,6.21-.76,6.39,6.57,5.8l.53,0c7.85-.63,8-1.17,6.09-6.81Z" transform="translate(-209.43 -244.98)"/><polygon points="30.08 16.9 46.84 36.95 47.9 6.75 30.08 16.9"/><polygon points="18.84 30.65 39.75 47.03 6.4 50.38 18.84 30.65"/><polygon points="61.24 37.39 60.94 7.02 75.36 12.98 61.24 37.39"/><polygon points="36.92 105.27 19.35 93.34 42.72 78.53 36.92 105.27"/><polygon points="12.77 64.94 32.34 67.42 12.22 79.16 12.77 64.94"/></g><g id="Beta_purple" data-name="Beta purple"><polygon class="cls-1" points="304.08 21.95 347.42 20.11 340.75 31.11 351.1 41.05 305.18 42.52 304.08 21.95"/><path d="M525,280.55a4,4,0,0,1-2.33.68l-3.74.13-.32-9.17,3.12-.1a5,5,0,0,1,2.27.3,2.1,2.1,0,0,1,1.24,1.89,2.13,2.13,0,0,1-1.27,2.06v0a2.22,2.22,0,0,1,2,2.11A2.32,2.32,0,0,1,525,280.55Zm-2.35-6.72a1.64,1.64,0,0,0-1-.15l-.89,0,.08,2.12.83,0a1.67,1.67,0,0,0,1-.24,1,1,0,0,0,.43-.89A.93.93,0,0,0,522.68,273.83Zm.61,3.65a1.94,1.94,0,0,0-1.15-.21l-1.18,0,.08,2.34,1.18,0a1.9,1.9,0,0,0,1.13-.29,1.14,1.14,0,0,0-.06-1.84Z" transform="translate(-209.43 -244.98)"/><path d="M533.29,280.86l-6.06.21-.32-9.16,5.94-.21.06,1.71-3.8.13.07,1.88,3.58-.13.06,1.71-3.58.13.07,2.13,3.92-.14Z" transform="translate(-209.43 -244.98)"/><path d="M540.46,273.14l-2.37.08.26,7.46-2.15.08-.26-7.47-2.36.09-.06-1.7,6.88-.24Z" transform="translate(-209.43 -244.98)"/><path d="M548.66,280.32l-2.34.08-.71-1.82-3.27.11-.59,1.87-2.23.08,3.14-9.3,2.23-.07Zm-3.6-3.4-1.26-3.25-1,3.33Z" transform="translate(-209.43 -244.98)"/></g></svg>