<?xml version="1.0" encoding="UTF-8" standalone="no"?>
<!-- Generator: Adobe Illustrator 26.0.3, SVG Export Plug-In . SVG Version: 6.00 Build 0)  -->

<svg
   version="1.1"
   id="Calque_1"
   x="0px"
   y="0px"
   viewBox="0 0 32 32"
   xml:space="preserve"
   sodipodi:docname="ligo.svg"
   width="32"
   height="32"
   inkscape:version="1.2 (dc2aedaf03, 2022-05-15)"
   xmlns:inkscape="http://www.inkscape.org/namespaces/inkscape"
   xmlns:sodipodi="http://sodipodi.sourceforge.net/DTD/sodipodi-0.dtd"
   xmlns="http://www.w3.org/2000/svg"
   xmlns:svg="http://www.w3.org/2000/svg"><defs
   id="defs97" /><sodipodi:namedview
   id="namedview95"
   pagecolor="#ffffff"
   bordercolor="#000000"
   borderopacity="0.25"
   inkscape:showpageshadow="2"
   inkscape:pageopacity="0.0"
   inkscape:pagecheckerboard="0"
   inkscape:deskcolor="#d1d1d1"
   showgrid="false"
   inkscape:zoom="16.259615"
   inkscape:cx="51.969249"
   inkscape:cy="16.021289"
   inkscape:window-width="3766"
   inkscape:window-height="2119"
   inkscape:window-x="2330"
   inkscape:window-y="0"
   inkscape:window-maximized="1"
   inkscape:current-layer="Calque_1" />
<style
   type="text/css"
   id="style2">
	.st0{fill:#0E74FF;}
	.st1{fill:#EB3448;}
</style>

<g
   id="g92"
   style="fill:#000000">
	<g
   id="g90"
   style="fill:#000000">
		<path
   class="st0"
   d="m 31.9,15.9 c 0,-2 -0.4,-4 -1.2,-5.9 v 0 C 29.1,6.2 26,3 22.1,1.5 20.2,0.8 18.3,0.3 16.3,0.3 14.6,0.3 13,0.6 11.4,1.1 5.1,3.3 0.8,9.2 0.8,15.9 c 0,8.6 7,15.5 15.5,15.5 6.8,0 12.7,-4.3 14.8,-10.7 v 0 c 0.5,-1.5 0.8,-3.1 0.8,-4.8 z M 22.6,3.3 c 2.7,1.4 4.9,3.6 6.3,6.2 H 22.6 Z M 22.2,11 h 7.4 c 0.6,1.6 0.9,3.2 0.9,4.9 0,1.3 -0.2,2.6 -0.5,3.9 H 13.3 l 4.4,-4.4 z M 21.1,2.6 v 7.3 l -8.8,8.8 V 2.4 c 2.9,-0.9 6,-0.8 8.8,0.2 z M 16.3,30 C 8.5,30 2.2,23.7 2.2,15.9 2.2,10.2 5.7,5.1 10.9,2.9 v 17.6 c 0,0.1 0,0.2 0.1,0.3 v 0 0 c 0.1,0.2 0.2,0.3 0.4,0.4 v 0 0 c 0.1,0.1 0.2,0.1 0.3,0.1 H 29.5 C 27.2,26.6 22.1,30 16.3,30 Z"
   id="path88"
   style="fill:#000000" />
	</g>
</g>
</svg>
