<?xml version="1.0" encoding="UTF-8" standalone="no"?>
<svg xmlns:dc="http://purl.org/dc/elements/1.1/" xmlns:cc="http://creativecommons.org/ns#" xmlns:rdf="http://www.w3.org/1999/02/22-rdf-syntax-ns#" xmlns:svg="http://www.w3.org/2000/svg" xmlns="http://www.w3.org/2000/svg" viewBox="0 0 250 320" width="250" height="320" version="1.1">
    <path d="M 50,124 C 16.666667,41.333333 33.333333,82.666667 50,124 Z" fill="#66aacc"/>
    <path fill="#006dcc" d="M 0,153 V 72 L 125.5,0 252,73 v 54.5 l -72,42.5 -73,-42 19,-11 53,31 53,-31 V 84.5 L 126,22 20,84 v 58 z"/>
    <path d="m 51,102 74.20465,-43.07113 71.5907,41.14226 L 178.5,111 126,80 51,123 Z" fill="#66aacc"/>
    <path d="m 252,164 v 81 L 126.5,317 0,244 v -54.5 l 72,-42.5 73,42 -19,11 -53,-31 -53,31 v 32.5 L 126,295 232,233 v -58 z" fill="#006dcc"/>
    <path fill="#66aacc" d="M 199.79534,215 125.59069,258.07114 54,216.92887 72.29535,206 l 52.49999,31 75,-43 z"/>
</svg>