<?xml version="1.0" encoding="UTF-8" standalone="no"?>
<svg
   width="240"
   height="239"
   viewBox="0 0 240 239"
   fill="none"
   version="1.1"
   id="svg31"
   sodipodi:docname="taq-white.svg"
   inkscape:version="1.2 (dc2aedaf03, 2022-05-15)"
   xmlns:inkscape="http://www.inkscape.org/namespaces/inkscape"
   xmlns:sodipodi="http://sodipodi.sourceforge.net/DTD/sodipodi-0.dtd"
   xmlns="http://www.w3.org/2000/svg"
   xmlns:svg="http://www.w3.org/2000/svg">
  <sodipodi:namedview
     id="namedview33"
     pagecolor="#ffffff"
     bordercolor="#000000"
     borderopacity="0.25"
     inkscape:showpageshadow="2"
     inkscape:pageopacity="0.0"
     inkscape:pagecheckerboard="0"
     inkscape:deskcolor="#d1d1d1"
     showgrid="false"
     inkscape:zoom="6.0769763"
     inkscape:cx="127.53053"
     inkscape:cy="102.1067"
     inkscape:window-width="3768"
     inkscape:window-height="2119"
     inkscape:window-x="2328"
     inkscape:window-y="0"
     inkscape:window-maximized="1"
     inkscape:current-layer="svg31" />
  <g
     clip-path="url(#clip0_2_889)"
     id="g24"
     transform="matrix(1.2277402,0,0,1.3872962,-24.678107,-37.943293)"
     style="fill:#f9f9f9">
    <path
       d="m 203.8258,142.49118 c -0.6052,0.26716 -1.26739,0.29261 -1.88752,0.0763 -0.61876,-0.21626 -1.16018,-0.66471 -1.54148,-1.27694 -0.3813,-0.61224 -0.58213,-1.35329 -0.56991,-2.11024 0.0122,-0.75854 0.23611,-1.49004 0.6364,-2.08479 1.31488,-4.37153 1.1344,-9.17083 -0.50071,-13.3913 -1.45735,-3.2854 -3.99348,-5.02034 -7.73321,-5.2716 -18.98633,-1.31353 -21.80741,-11.60389 -24.08164,-19.936667 -1.15341,-4.19391 -2.06798,-7.54515 -4.85786,-9.576187 -5.62181,-4.110586 -9.62343,-3.098714 -14.3768,-1.862634 -4.75337,1.236241 -9.74284,2.541812 -16.16524,-1.001684 -3.87408,-2.188308 -7.1538,-5.591717 -9.47689,-9.832692 -2.84414,-4.43864 -4.85106,-7.687315 -13.3903,-7.491717 -4.16309,0.206093 -8.24477,1.404011 -11.998887,3.520921 -0.354305,0.187011 -0.736553,0.290534 -1.124909,0.304369 -0.388356,0.01399 -0.775358,-0.06186 -1.138744,-0.223108 -0.363385,-0.161249 -0.696109,-0.404872 -0.979166,-0.716875 -0.283057,-0.312002 -0.51089,-0.686342 -0.670609,-1.101549 -0.159567,-0.415209 -0.247907,-0.863176 -0.259848,-1.318299 -0.01181,-0.455123 0.05294,-0.908655 0.190514,-1.334518 0.137589,-0.425862 0.345479,-0.815787 0.611709,-1.147508 0.26623,-0.331721 0.585659,-0.59872 0.939954,-0.785889 4.486455,-2.50111 9.359096,-3.91005 14.322786,-4.141906 11.591,-0.253641 15.1394,5.364948 18.25901,10.308964 1.75045,3.291133 4.24587,5.948243 7.20944,7.676024 4.62852,2.515897 8.22713,1.594996 12.40651,0.50617 5.23779,-1.345015 11.14864,-2.881651 18.80993,2.757928 4.6231,3.412947 6.06417,8.697428 7.34512,13.342 2.05578,7.550407 3.83337,14.038517 18.76379,15.053097 7.88113,0.54703 11.46481,5.77888 13.07007,10.07886 2.79531,7.43271 1.51435,16.86912 -0.54413,19.83966 -0.32431,0.51046 -0.7626,0.90484 -1.26738,1.14178 z"
       fill="#0a0203"
       id="path4"
       style="stroke-width:1.46896;fill:#f9f9f9" />
    <path
       d="m 187.17612,154.76932 -0.46408,0.0827 -118.708521,21.73841 c -3.995108,0.97321 -8.156306,0.18923 -11.689647,-2.20247 -2.311957,-1.64906 -4.256862,-3.91832 -5.674459,-6.61852 -1.417733,-2.7018 -2.267586,-5.75981 -2.479947,-8.92117 -0.898567,-17.24919 3.773248,-34.26303 13.087161,-47.65909 3.628191,-23.525987 23.795064,-40.859455 41.561633,-49.332978 14.28181,-6.74606 29.89071,-8.668167 45.05726,-5.548142 17.99847,3.79778 34.37268,14.609731 46.46982,30.682474 15.28867,20.378906 19.65394,38.744436 12.67113,53.207546 -2.30952,4.79295 -5.75343,8.69855 -9.91653,11.24609 -3.08298,1.86851 -6.45362,2.99917 -9.91382,3.32517 z M 72.51223,98.513464 c 10.018573,-8.963799 22.239597,-13.896042 34.84314,-14.062223 12.60464,-0.166012 24.91752,4.442938 35.10544,13.140844 10.84604,8.967925 17.40279,21.824905 23.79262,34.246165 l 2.70032,5.26047 c 1.72873,3.21703 4.15088,5.8425 7.02217,7.61083 2.87129,1.76992 6.08995,2.61751 9.33169,2.46167 0.38944,0 0.78567,-0.0206 1.17782,-0.0556 l 3.30958,-0.60907 c 2.42079,-0.65516 4.70046,-1.89078 6.69516,-3.62889 1.9947,-1.73812 3.66102,-3.94059 4.89449,-6.46904 6.97739,-14.39314 -2.63925,-32.04943 -11.89089,-44.360965 -11.12149,-14.768758 -26.16726,-24.709106 -42.70703,-28.21333 -13.948,-2.862249 -28.30173,-1.093122 -41.43557,5.107332 -2.50627,1.189171 -5.07904,2.576485 -7.638227,4.143494 C 87.837662,79.128639 78.21125,87.782809 72.51223,98.513507 Z m 11.334261,0.667896 c -5.914907,3.6114 -11.219057,8.45523 -15.652865,14.29295 -4.70126,6.05877 -8.320631,13.15754 -10.645072,20.87968 -2.324578,7.72374 -3.307139,15.91181 -2.890015,24.08717 0.176537,3.01347 1.33808,5.83135 3.242955,7.86526 1.90474,2.03548 4.40599,3.13116 6.982822,3.05959 L 170.6947,149.98752 c -3.00699,-2.31061 -5.53767,-5.37656 -7.40483,-8.97684 -0.91729,-1.76356 -1.82237,-3.5319 -2.72745,-5.30023 -6.26772,-12.30517 -12.20026,-23.91382 -21.89969,-31.94447 -9.69127,-8.148957 -21.43425,-12.253651 -33.35092,-11.657958 -7.511474,0.478661 -14.844666,2.861776 -21.493537,6.984282 z"
       fill="#0a0203"
       id="path6"
       style="stroke-width:1.46896;fill:#f9f9f9" />
    <path
       d="m 76.560258,171.38878 c -0.549426,0.24013 -1.144987,0.29578 -1.719788,0.16062 -0.574801,-0.13518 -1.105908,-0.4564 -1.533616,-0.9271 L 58.957466,154.9029 c -0.303276,-0.33076 -0.547933,-0.72832 -0.719722,-1.1704 -0.171924,-0.44208 -0.267589,-0.91916 -0.281565,-1.40576 -0.01411,-0.48502 0.05374,-0.96845 0.199606,-1.42326 0.145871,-0.45481 0.366781,-0.87144 0.650247,-1.22448 0.283464,-0.35462 0.623785,-0.63927 1.001559,-0.83964 0.377636,-0.20037 0.785397,-0.31008 1.199535,-0.3244 0.414275,-0.0144 0.826786,0.0668 1.214192,0.23854 0.387271,0.17332 0.741704,0.43412 1.042946,0.76649 l 14.349388,15.72098 c 0.390799,0.42936 0.681592,0.96844 0.844833,1.56637 0.163239,0.59792 0.193635,1.23561 0.08806,1.85102 -0.105434,0.61542 -0.34317,1.18949 -0.690819,1.66656 -0.347648,0.47866 -0.793539,0.84441 -1.295472,1.06386 z"
       fill="#0a0203"
       id="path8"
       style="stroke-width:1.46896;fill:#f9f9f9" />
    <path
       d="m 93.576853,169.06547 c -0.549429,0.24011 -1.144994,0.29577 -1.719791,0.16061 -0.574798,-0.13518 -1.105904,-0.45481 -1.533615,-0.92552 L 75.986679,152.57481 c -0.610623,-0.66948 -0.969671,-1.595 -0.998166,-2.57298 -0.02836,-0.97959 0.276137,-1.93054 0.846731,-2.64614 0.570458,-0.71561 1.360199,-1.13702 2.195396,-1.17041 0.835198,-0.0334 1.647463,0.3244 2.258087,0.9923 l 14.33677,15.72575 c 0.612798,0.65994 0.978087,1.57592 1.015945,2.55072 0.03797,0.97322 -0.254564,1.92577 -0.813766,2.64614 -0.342761,0.4389 -0.772498,0.76967 -1.250823,0.96528 z"
       fill="#0a0203"
       id="path10"
       style="stroke-width:1.46896;fill:#f9f9f9" />
    <path
       d="m 110.59304,166.74373 c -0.54956,0.23853 -1.14391,0.2926 -1.71925,0.15743 -0.57399,-0.13517 -1.10591,-0.4548 -1.53334,-0.92392 L 93.003267,150.25148 c -0.302459,-0.33075 -0.546162,-0.72831 -0.717405,-1.17039 -0.171253,-0.4405 -0.266648,-0.91757 -0.280757,-1.40259 -0.01415,-0.48343 0.05344,-0.96685 0.198658,-1.42166 0.145325,-0.45322 0.365421,-0.86985 0.647938,-1.22447 0.282518,-0.35462 0.621747,-0.63927 0.998437,-0.84124 0.37669,-0.20037 0.78336,-0.31168 1.196962,-0.32759 0.413591,-0.0174 0.825829,0.062 1.213371,0.23218 0.387409,0.17016 0.742518,0.42778 1.044846,0.76013 l 14.348843,15.71939 c 0.61062,0.66153 0.97293,1.57751 1.01093,2.55073 0.038,0.97162 -0.2524,1.92258 -0.80874,2.64613 -0.34466,0.44209 -0.78024,0.77603 -1.26331,0.97163 z"
       fill="#0a0203"
       id="path12"
       style="stroke-width:1.46896;fill:#f9f9f9" />
    <path
       d="m 126.87769,162.10504 c -0.54821,0.24012 -1.14118,0.2942 -1.71517,0.15902 -0.57263,-0.13676 -1.10184,-0.45957 -1.5252,-0.93028 L 109.28765,145.6128 c -0.30395,-0.33077 -0.54819,-0.72832 -0.71917,-1.17041 -0.17234,-0.44209 -0.26868,-0.91915 -0.28225,-1.40417 -0.0135,-0.48502 0.0543,-0.97004 0.19948,-1.42326 0.14654,-0.45479 0.36636,-0.87144 0.64997,-1.22606 0.2836,-0.35462 0.62419,-0.63927 1.00142,-0.83964 0.37859,-0.19877 0.78567,-0.31009 1.19954,-0.32441 0.41523,-0.0144 0.82773,0.0668 1.21446,0.24013 0.38809,0.17174 0.74225,0.43254 1.04349,0.76649 l 14.34966,15.72098 c 0.61062,0.65676 0.97564,1.57114 1.01228,2.54278 0.0367,0.97162 -0.25646,1.92099 -0.81552,2.63818 -0.34467,0.44368 -0.77888,0.77763 -1.26332,0.97163 z"
       fill="#0a0203"
       id="path14"
       style="stroke-width:1.46896;fill:#f9f9f9" />
    <path
       d="m 143.90731,159.77695 c -0.54955,0.24012 -1.14526,0.29578 -1.7206,0.16061 -0.57398,-0.13516 -1.1059,-0.4564 -1.53335,-0.9271 l -14.34965,-15.7194 c -0.56042,-0.68379 -0.87523,-1.59499 -0.88066,-2.54276 -0.005,-0.94937 0.29989,-1.86375 0.85352,-2.5555 0.55227,-0.69334 1.3108,-1.10998 2.11954,-1.16723 0.80738,-0.0572 1.60391,0.25285 2.22267,0.86349 l 14.33745,15.72575 c 0.61198,0.65836 0.97699,1.57592 1.015,2.54914 0.038,0.97322 -0.25375,1.92577 -0.81281,2.64772 -0.34467,0.43573 -0.77346,0.76649 -1.25111,0.96528 z"
       fill="#0a0203"
       id="path16"
       style="stroke-width:1.46896;fill:#f9f9f9" />
    <path
       d="m 160.62348,156.50426 c -0.54956,0.23853 -1.14526,0.2926 -1.71924,0.15743 -0.57535,-0.13516 -1.10592,-0.4548 -1.53471,-0.92392 l -14.33609,-15.72576 c -0.30259,-0.33076 -0.54684,-0.72831 -0.71782,-1.1704 -0.17097,-0.44049 -0.26732,-0.91755 -0.28089,-1.40257 -0.0135,-0.48502 0.0529,-0.96686 0.19947,-1.42167 0.14519,-0.45322 0.36503,-0.86985 0.64727,-1.22447 0.28224,-0.35463 0.62148,-0.63928 0.99871,-0.84124 0.37586,-0.20036 0.78295,-0.31168 1.19682,-0.32917 0.41386,-0.016 0.82638,0.0636 1.2131,0.23376 0.38809,0.17016 0.74225,0.42777 1.04485,0.75854 l 14.33745,15.72734 c 0.61197,0.65835 0.977,1.57591 1.01499,2.54913 0.038,0.97322 -0.25375,1.92577 -0.81281,2.64773 -0.3433,0.43731 -0.77346,0.76808 -1.2511,0.96527 z"
       fill="#0a0203"
       id="path18"
       style="stroke-width:1.46896;fill:#f9f9f9" />
    <path
       d="M 23.821493,101.36791 30.50891,68.695436 60.354166,95.012418 Z"
       fill="#0a0203"
       id="path20"
       style="stroke-width:1.46896;fill:#f9f9f9" />
    <path
       d="M 65.775556,44.43446 71.971081,74.788868 47.551963,51.55311 Z"
       fill="#0a0203"
       id="path22"
       style="stroke-width:1.46896;fill:#f9f9f9" />
  </g>
  <defs
     id="defs29">
    <clipPath
       id="clip0_2_889">
      <rect
         width="185.633"
         height="185.633"
         fill="white"
         transform="translate(0.445801 64.8352) rotate(-20.3286)"
         id="rect26" />
    </clipPath>
  </defs>
</svg>
